<?xml version="1.0" encoding="UTF-8" standalone="no"?>
<!-- Created with Inkscape (http://www.inkscape.org/) -->

<svg
   width="376.20636"
   height="204.58035"
   viewBox="0 0 99.53793 54.128552"
   version="1.1"
   id="svg1"
   inkscape:version="1.3 (0e150ed6c4, 2023-07-21)"
   sodipodi:docname="Massenstrombilanz.svg"
   xmlns:inkscape="http://www.inkscape.org/namespaces/inkscape"
   xmlns:sodipodi="http://sodipodi.sourceforge.net/DTD/sodipodi-0.dtd"
   xmlns="http://www.w3.org/2000/svg"
   xmlns:svg="http://www.w3.org/2000/svg">
  <sodipodi:namedview
     id="namedview1"
     pagecolor="#ffffff"
     bordercolor="#000000"
     borderopacity="0.25"
     inkscape:showpageshadow="2"
     inkscape:pageopacity="0.0"
     inkscape:pagecheckerboard="0"
     inkscape:deskcolor="#d1d1d1"
     inkscape:document-units="mm"
     inkscape:zoom="2.0132505"
     inkscape:cx="261.02068"
     inkscape:cy="184.03075"
     inkscape:window-width="1920"
     inkscape:window-height="1043"
     inkscape:window-x="1920"
     inkscape:window-y="0"
     inkscape:window-maximized="1"
     inkscape:current-layer="layer1" />
  <defs
     id="defs1">
    <path
       id="MJX-20-TEX-I-1D461"
       d="m 26,385 q -7,7 -7,10 0,4 3,16 3,12 5,14 2,5 9,5 7,0 51,1 h 53 l 19,80 q 3,11 7,29 4,18 7,26 3,8 6,20 3,12 8,17 5,5 10,12 5,7 14,9 9,2 18,2 18,-1 25,-11 7,-10 7,-19 0,-7 -9,-47 -9,-40 -20,-79 l -10,-37 q 0,-2 50,-2 h 51 q 7,-7 7,-11 0,-22 -13,-35 H 210 L 174,240 Q 135,80 135,68 q 0,-42 27,-42 35,0 68,34 33,34 53,84 2,6 5,7 3,1 15,2 h 4 q 15,0 15,-8 0,-3 -3,-12 Q 314,117 301,95 288,73 267,48 246,23 216,6 186,-11 155,-11 125,-11 98,4 71,19 59,56 57,64 57,83 v 18 l 35,140 q 35,141 36,142 0,2 -51,2 z" />
    <path
       id="MJX-20-TEX-N-31"
       d="m 213,578 -13,-5 q -14,-5 -40,-10 -26,-5 -58,-7 H 83 v 46 h 19 q 47,2 87,15 40,13 56,24 16,11 28,22 2,3 12,3 9,0 17,-6 V 361 l 1,-300 q 7,-7 12,-9 5,-2 24,-4 19,-2 62,-2 h 26 V 0 H 416 Q 395,3 257,3 121,3 100,0 H 88 v 46 h 26 q 22,0 38,0 16,0 25,1 9,1 16,3 7,2 8,2 1,0 6,5 5,5 6,4 z" />
    <path
       id="MJX-20-TEX-N-A0"
       d="" />
    <path
       id="MJX-20-TEX-N-32"
       d="m 109,429 q -27,0 -43,18 -16,18 -16,44 0,71 53,123 53,52 132,52 91,0 152,-56 61,-56 62,-145 0,-43 -20,-82 -20,-39 -48,-68 -28,-29 -80,-74 -36,-31 -100,-92 l -59,-56 76,-1 q 157,0 167,5 7,2 24,89 v 3 h 40 v -3 Q 448,183 436,95 424,7 421,3 V 0 H 50 v 19 12 q 0,7 6,15 6,8 30,35 29,32 50,56 9,10 34,37 25,27 34,37 9,10 29,33 20,23 28,34 8,11 23,30 15,19 21,32 6,13 15,29 9,16 13,32 4,16 7,30 3,14 3,33 0,63 -34,109 -34,46 -97,46 -33,0 -58,-17 -25,-17 -35,-33 -10,-16 -10,-19 0,-1 5,-1 18,0 37,-14 19,-14 19,-46 0,-25 -16,-42 -16,-17 -45,-18 z" />
    <path
       id="MJX-49-TEX-I-1D449"
       d="m 52,648 q 0,22 13,35 h 11 q 42,-3 105,-3 118,0 139,3 h 10 q 6,-6 6,-9 0,-3 -2,-18 -5,-15 -9,-19 h -21 q -22,-2 -30,-2 -29,-5 -32,-15 0,-2 29,-251 29,-249 30,-251 l 73,117 q 73,117 146,236 73,119 75,123 4,7 4,15 0,24 -44,28 -18,0 -18,11 0,1 2,13 3,14 6,18 3,4 13,4 2,0 12,0 10,0 34,-1 24,-1 64,-1 69,0 87,2 h 7 q 7,-7 7,-11 0,-17 -9,-32 -3,-3 -17,-3 -13,-1 -24,-2 -11,-1 -21,-5 -10,-4 -16,-7 -6,-3 -12,-8 -6,-5 -10,-7 -4,-2 -8,-9 -4,-7 -7,-7 L 452,282 Q 272,-9 266,-16 q -3,-2 -7,-5 l -18,-1 h -7 q -18,0 -18,7 -3,6 -39,320 -38,318 -39,321 -5,11 -62,11 H 59 q -7,5 -7,11 z" />
    <path
       id="MJX-49-TEX-N-3D"
       d="m 56,347 q 0,13 14,20 h 637 q 15,-8 15,-20 0,-11 -14,-19 L 390,327 H 72 q -16,5 -16,20 z m 0,-194 q 0,15 16,20 h 636 q 14,-10 14,-20 0,-13 -15,-20 H 70 q -14,7 -14,20 z" />
    <path
       id="MJX-49-TEX-LO-220F"
       d="m 220,812 q 0,1 -2,7 -2,6 -4,10 -2,4 -6,11 -4,7 -9,13 -5,6 -14,13 -9,7 -19,12 -10,5 -26,9 -16,4 -33,6 -17,2 -41,3 H 56 v 54 h 1165 v -54 h -10 q -131,0 -153,-84 V -311 q 18,-85 153,-85 h 10 v -54 H 725 v 54 h 10 q 129,0 153,82 1,2 1,3 V 896 H 388 V 292 l 1,-603 q 16,-85 153,-85 h 10 v -54 H 56 v 54 h 10 q 129,0 153,82 1,2 1,3 z" />
    <path
       id="MJX-49-TEX-I-1D456"
       d="m 184,600 q 0,24 19,42 19,18 44,19 18,0 30,-12 12,-12 13,-30 0,-23 -20,-42 -20,-19 -44,-20 -15,0 -28,10 -13,10 -14,33 z M 21,287 q 0,8 9,31 9,23 24,51 15,28 44,51 29,23 60,22 39,0 65,-23 26,-23 27,-62 0,-17 -14,-56 -14,-39 -40,-105 -26,-66 -42,-113 -5,-22 -5,-32 0,-25 17,-25 9,0 19,3 10,3 23,14 13,11 27,35 14,24 25,59 3,12 5,14 2,2 17,2 20,0 20,-10 0,-8 -9,-31 -9,-23 -25,-51 -16,-28 -45,-50 -29,-22 -62,-22 -32,0 -59,21 -27,21 -28,64 0,17 5,32 5,15 43,114 38,101 44,121 6,20 7,39 0,24 -17,24 h -2 q -30,0 -55,-33 -25,-33 -38,-84 -1,-1 -2,-3 -1,-2 -1,-3 0,-1 -2,-2 -2,-1 -3,-1 -1,0 -4,0 -3,0 -8,0 H 27 q -6,6 -6,9 z" />
    <path
       id="MJX-49-TEX-I-1D451"
       d="m 366,683 q 1,0 72,5 71,5 73,6 12,0 12,-8 0,-7 -73,-302 -73,-295 -75,-301 -2,-6 -1,-15 0,-42 28,-42 9,1 20,9 21,20 41,96 6,20 10,21 2,1 10,1 h 4 4 q 15,0 15,-8 0,-5 -3,-16 Q 490,79 473,48 456,17 445,8 434,-1 417,-8 q -8,-2 -24,-2 -34,0 -57,15 -23,15 -30,31 l -6,15 q -1,1 -4,-1 -2,-2 -4,-4 -59,-56 -120,-56 -55,0 -97,40 -42,40 -42,127 0,48 20,98 20,50 48,86 47,57 94,79 47,22 85,22 56,0 84,-42 5,-6 5,-4 1,4 27,109 26,105 28,111 0,13 -7,16 -7,3 -39,5 h -21 q -6,6 -6,8 0,2 2,19 5,19 13,19 z M 352,326 q -23,79 -75,79 -35,0 -67,-31 -32,-31 -50,-81 -29,-79 -41,-164 0,-3 0,-11 0,-8 -1,-12 0,-45 18,-62 18,-17 43,-18 54,0 111,72 l 8,11 z" />
    <path
       id="MJX-49-TEX-I-1D465"
       d="m 52,289 q 7,42 54,97 47,55 116,56 35,0 64,-18 29,-18 43,-45 42,63 101,63 37,0 64,-22 27,-22 28,-59 0,-29 -14,-47 -14,-18 -27,-22 -13,-4 -23,-4 -19,0 -31,11 -12,11 -12,29 0,46 50,63 -11,13 -40,13 -13,0 -19,-2 -38,-16 -56,-66 -60,-221 -60,-258 0,-28 16,-40 16,-12 35,-12 37,0 73,33 36,33 49,81 3,10 6,11 3,1 16,2 h 4 q 15,0 15,-8 0,-1 -2,-11 Q 486,77 440,33 394,-11 333,-11 263,-11 227,52 186,-10 133,-10 h -6 q -49,0 -70,26 -21,26 -22,55 0,32 19,52 19,20 45,20 43,0 43,-42 Q 142,81 130,66 118,51 107,46 96,41 94,41 l -3,-1 q 0,-1 6,-4 6,-3 16,-7 10,-4 19,-3 36,0 62,45 9,16 23,68 14,52 28,108 14,56 16,66 5,27 5,39 0,28 -15,40 -15,12 -34,12 -40,0 -75,-32 -35,-32 -49,-82 -2,-9 -5,-10 -3,-1 -16,-2 H 58 q -6,6 -6,11 z" />
    <path
       id="MJX-49-TEX-N-2B"
       d="m 56,237 q 0,0 0,13 0,13 14,20 h 299 v 150 l 1,150 q 10,13 19,13 13,0 20,-15 V 270 h 298 q 15,-8 15,-20 0,-12 -15,-20 H 409 V -68 q -8,-14 -18,-14 h -2 -2 q -12,0 -18,14 V 230 H 70 q -14,7 -14,20 z" />
    <path
       id="MJX-49-TEX-N-28"
       d="m 94,250 q 0,69 10,131 10,62 23,107 13,45 37,88 24,43 38,67 14,24 42,52 28,28 33,34 5,6 25,21 h 13 4 q 14,0 14,-9 0,-3 -17,-21 -17,-18 -41,-53 -24,-35 -49,-86 -25,-51 -42,-138 -17,-87 -17,-193 0,-106 17,-192 17,-86 41,-139 24,-53 49,-86 25,-33 42,-53 17,-20 17,-21 0,-9 -15,-9 h -3 -13 l -28,24 Q 180,-141 137,-14 94,113 94,250 Z" />
    <path
       id="MJX-49-TEX-I-1D45A"
       d="m 21,287 q 1,6 3,16 2,10 12,38 10,28 20,47 10,19 32,37 22,18 44,17 22,-1 43,-7 21,-6 30,-18 9,-12 16,-22 7,-10 8,-19 l 2,-7 q 0,-2 1,-2 l 11,11 q 60,64 141,64 17,0 31,-2 14,-2 26,-7 12,-5 19,-10 7,-5 15,-12 8,-7 10,-13 2,-6 8,-13 6,-7 4,-12 -2,-5 3,-9 5,-4 2,-7 l 8,10 q 63,75 149,75 54,0 87,-27 33,-27 34,-79 0,-51 -38,-158 -38,-107 -38,-128 1,-14 5,-19 4,-5 15,-5 28,0 52,30 24,30 39,82 3,11 6,13 3,2 16,2 20,0 20,-8 0,-1 -4,-15 -8,-29 -22,-57 -14,-28 -46,-56 -32,-28 -69,-27 -47,0 -68,27 -21,27 -21,56 0,19 36,120 36,101 37,152 0,59 -44,59 h -5 Q 565,404 506,303 L 499,291 466,157 Q 433,26 428,16 q -13,-27 -43,-27 -13,0 -21,7 -8,7 -11,12 -3,5 -3,10 0,11 34,143 l 36,146 q 3,15 3,38 0,59 -44,59 h -5 Q 288,404 229,303 L 222,291 189,157 Q 156,26 151,16 138,-11 108,-11 95,-11 87,-5 79,1 76,7 q -3,6 -2,10 0,13 38,164 39,154 39,161 3,15 3,27 0,36 -25,36 -22,0 -37,-28 Q 77,349 69,316 61,283 57,280 55,278 41,278 H 27 q -6,6 -6,9 z" />
    <path
       id="MJX-49-TEX-N-2D9"
       d="m 190,609 q 0,28 18,44 18,16 44,16 23,-2 40,-17 17,-15 17,-43 0,-30 -17,-45 -17,-15 -42,-15 -25,0 -42,15 -17,15 -18,45 z" />
    <path
       id="MJX-49-TEX-N-65"
       d="m 28,218 q 0,55 20,100 20,45 50,73 30,28 65,42 35,14 66,15 53,0 91,-18 38,-18 58,-50 20,-32 28,-64 8,-32 9,-71 0,-7 -7,-14 H 126 v -15 q 0,-148 100,-180 20,-6 44,-6 42,0 72,32 17,17 27,42 l 10,24 q 3,3 16,3 h 3 q 17,0 17,-10 0,-4 -3,-13 Q 393,53 349,21 305,-11 250,-11 155,-11 92,58 29,127 28,218 Z m 305,57 q -11,128 -95,136 h -2 q -8,0 -16,-1 -8,-1 -25,-8 -17,-7 -29,-21 -12,-14 -23,-41 -11,-27 -16,-66 v -7 h 206 z" />
    <path
       id="MJX-49-TEX-N-69"
       d="m 69,609 q 0,28 18,44 18,16 44,16 23,-2 40,-17 17,-15 17,-43 0,-30 -17,-45 -17,-15 -42,-15 -25,0 -42,15 -17,15 -18,45 z M 247,0 Q 232,3 143,3 132,3 106,3 80,3 56,1 L 34,0 h -8 v 46 h 16 q 28,0 49,3 9,4 11,11 2,7 2,42 v 103 88 q 0,52 -2,66 -2,14 -14,19 -14,7 -47,7 H 30 v 23 q 0,23 2,23 l 10,1 q 10,1 28,2 18,1 36,2 17,1 36,2 19,1 29,3 10,2 11,1 h 3 V 62 q 5,-10 12,-12 7,-2 35,-4 h 23 V 0 Z" />
    <path
       id="MJX-49-TEX-N-6E"
       d="m 41,46 h 14 q 39,0 47,14 v 8 q 0,9 0,23 0,14 0,31 0,17 1,39 1,22 0,42 0,31 0,66 0,35 -1,59 v 23 q -3,19 -14,25 -11,6 -45,9 H 25 v 23 q 0,23 2,23 l 10,1 q 10,1 28,2 18,1 37,2 17,1 36,2 19,1 29,3 10,2 11,1 h 3 v -40 q 0,-38 1,-38 1,0 5,5 4,5 12,15 8,10 19,18 11,8 29,19 18,11 38,16 20,5 51,5 114,-4 127,-113 1,-7 1,-139 v -86 q 0,-38 2,-45 2,-7 11,-10 21,-3 49,-3 h 16 V 0 h -8 L 510,1 Q 487,2 460,2 433,2 422,3 319,3 310,0 h -8 v 46 h 16 q 61,0 61,16 1,2 1,138 -1,135 -2,143 -6,28 -20,42 -14,14 -24,17 -10,3 -26,2 -45,0 -79,-34 -27,-27 -34,-55 -7,-28 -8,-83 v -64 -60 q 0,-30 1,-40 1,-10 3,-13 2,-3 9,-6 21,-3 49,-3 h 16 V 0 h -8 L 234,1 Q 210,2 183,2 156,2 145,3 42,3 33,0 h -8 v 46 z" />
    <path
       id="MJX-49-TEX-N-29"
       d="m 60,749 4,1 q 5,0 10,0 h 12 l 28,-24 q 94,-85 137,-212 43,-127 43,-264 0,-68 -10,-131 -10,-63 -23,-107 -13,-44 -37,-88 -24,-44 -38,-67 -14,-23 -41,-51 -27,-28 -32,-33 -5,-5 -23,-19 -3,-3 -4,-4 H 74 q -8,0 -11,0 -3,0 -5,3 -2,3 -3,9 1,1 11,13 155,161 155,475 0,314 -155,475 -10,12 -11,13 0,8 5,11 z" />
    <path
       id="MJX-49-TEX-N-61"
       d="m 137,305 q 0,0 -22,0 -22,0 -37,15 -15,15 -15,39 0,35 34,62 34,27 121,27 73,0 118,-32 45,-32 60,-76 5,-14 5,-31 0,-17 1,-115 v -70 q 0,-48 5,-66 5,-18 21,-18 15,0 20,16 5,16 5,53 v 36 h 40 V 106 Q 492,66 490,59 481,29 455,12 429,-5 400,-6 371,-7 353,12 335,31 329,54 v 4 l -2,-3 q -2,-3 -5,-6 -3,-3 -8,-9 -5,-6 -12,-11 -7,-5 -15,-12 -8,-7 -18,-11 -10,-4 -22,-8 -12,-4 -26,-6 -14,-2 -31,-3 -60,0 -108,31 -48,31 -48,87 0,21 7,40 7,19 27,41 20,22 48,37 28,15 78,28 50,13 110,15 h 14 v 22 q 0,34 -6,50 -22,71 -97,71 -18,0 -34,-1 -16,-1 -25,-4 -9,-3 -8,-3 22,-15 22,-44 0,-25 -16,-39 z M 126,106 q 0,-31 24,-55 24,-24 59,-25 38,0 67,23 29,23 39,60 2,7 3,66 0,58 -1,58 -8,0 -21,-1 -13,-1 -45,-9 -32,-8 -58,-20 -26,-12 -46,-37 -20,-25 -21,-60 z" />
    <path
       id="MJX-49-TEX-N-75"
       d="M 383,58 Q 327,-10 256,-10 h -7 q -125,0 -144,99 -1,7 -2,137 -1,109 -1,122 0,13 -6,21 -10,16 -60,16 H 25 v 23 q 0,23 2,23 l 11,1 q 10,1 29,2 19,1 38,2 17,1 37,2 20,1 30,3 10,2 12,1 h 3 V 261 q 1,-184 3,-197 3,-15 14,-24 20,-14 60,-14 26,0 47,9 21,9 32,23 11,14 20,32 9,18 12,30 3,12 4,24 0,1 0,17 0,16 1,40 1,24 0,47 v 67 q 0,46 -10,57 -10,11 -50,13 h -18 v 46 q 2,0 76,5 74,5 79,6 h 7 V 264 q 0,-180 1,-183 3,-20 14,-26 11,-6 45,-9 h 18 V 0 q -2,0 -75,-5 -73,-5 -77,-6 h -7 z" />
    <path
       id="MJX-49-TEX-N-73"
       d="m 295,316 q 0,40 -27,69 -27,29 -78,29 -36,0 -62,-13 -30,-19 -30,-52 -1,-5 0,-13 1,-8 16,-24 15,-16 43,-25 18,-5 44,-9 26,-4 44,-9 18,-5 32,-13 17,-8 33,-20 16,-12 32,-41 16,-29 17,-62 Q 359,71 321,31 283,-9 198,-10 h -8 q -52,0 -96,36 L 86,19 77,10 Q 71,4 65,-1 L 54,-11 h -8 -4 q -3,0 -9,6 v 79 58 q 0,21 2,25 2,4 10,5 h 9 q 12,0 16,-4 4,-4 5,-12 1,-8 7,-27 6,-19 19,-42 35,-51 97,-51 97,0 97,78 0,29 -18,47 -20,24 -83,36 -63,12 -83,23 -36,17 -57,46 -21,29 -21,62 0,39 17,66 17,27 43,40 26,13 50,18 24,5 44,5 h 11 q 40,0 70,-15 l 15,-8 9,7 q 10,9 22,17 h 8 4 q 3,0 9,-6 V 310 l -6,-6 h -28 q -6,6 -6,12 z" />
    <path
       id="MJX-69-TEX-N-3A9"
       d="M55 454Q55 503 75 546T127 617T197 665T272 695T337 704H352Q396 704 404 703Q527 687 596 615T666 454Q666 392 635 330T559 200T499 83V80H543Q589 81 600 83T617 93Q622 102 629 135T636 172L637 177H677V175L660 89Q645 3 644 2V0H552H488Q461 0 456 3T451 20Q451 89 499 235T548 455Q548 512 530 555T483 622T424 656T361 668Q332 668 303 658T243 626T193 560T174 456Q174 380 222 233T270 20Q270 7 263 0H77V2Q76 3 61 89L44 175V177H84L85 172Q85 171 88 155T96 119T104 93Q109 86 120 84T178 80H222V83Q206 132 162 199T87 329T55 454Z" />
    <path
       id="MJX-69-TEX-N-3D"
       d="M56 347Q56 360 70 367H707Q722 359 722 347Q722 336 708 328L390 327H72Q56 332 56 347ZM56 153Q56 168 72 173H708Q722 163 722 153Q722 140 707 133H70Q56 140 56 153Z" />
    <path
       id="MJX-69-TEX-LO-220F"
       d="M220 812Q220 813 218 819T214 829T208 840T199 853T185 866T166 878T140 887T107 893T66 896H56V950H1221V896H1211Q1080 896 1058 812V-311Q1076 -396 1211 -396H1221V-450H725V-396H735Q864 -396 888 -314Q889 -312 889 -311V896H388V292L389 -311Q405 -396 542 -396H552V-450H56V-396H66Q195 -396 219 -314Q220 -312 220 -311V812Z" />
    <path
       id="MJX-69-TEX-I-1D456"
       d="M184 600Q184 624 203 642T247 661Q265 661 277 649T290 619Q290 596 270 577T226 557Q211 557 198 567T184 600ZM21 287Q21 295 30 318T54 369T98 420T158 442Q197 442 223 419T250 357Q250 340 236 301T196 196T154 83Q149 61 149 51Q149 26 166 26Q175 26 185 29T208 43T235 78T260 137Q263 149 265 151T282 153Q302 153 302 143Q302 135 293 112T268 61T223 11T161 -11Q129 -11 102 10T74 74Q74 91 79 106T122 220Q160 321 166 341T173 380Q173 404 156 404H154Q124 404 99 371T61 287Q60 286 59 284T58 281T56 279T53 278T49 278T41 278H27Q21 284 21 287Z" />
    <path
       id="MJX-69-TEX-I-1D451"
       d="M366 683Q367 683 438 688T511 694Q523 694 523 686Q523 679 450 384T375 83T374 68Q374 26 402 26Q411 27 422 35Q443 55 463 131Q469 151 473 152Q475 153 483 153H487H491Q506 153 506 145Q506 140 503 129Q490 79 473 48T445 8T417 -8Q409 -10 393 -10Q359 -10 336 5T306 36L300 51Q299 52 296 50Q294 48 292 46Q233 -10 172 -10Q117 -10 75 30T33 157Q33 205 53 255T101 341Q148 398 195 420T280 442Q336 442 364 400Q369 394 369 396Q370 400 396 505T424 616Q424 629 417 632T378 637H357Q351 643 351 645T353 664Q358 683 366 683ZM352 326Q329 405 277 405Q242 405 210 374T160 293Q131 214 119 129Q119 126 119 118T118 106Q118 61 136 44T179 26Q233 26 290 98L298 109L352 326Z" />
    <path
       id="MJX-69-TEX-I-1D465"
       d="M52 289Q59 331 106 386T222 442Q257 442 286 424T329 379Q371 442 430 442Q467 442 494 420T522 361Q522 332 508 314T481 292T458 288Q439 288 427 299T415 328Q415 374 465 391Q454 404 425 404Q412 404 406 402Q368 386 350 336Q290 115 290 78Q290 50 306 38T341 26Q378 26 414 59T463 140Q466 150 469 151T485 153H489Q504 153 504 145Q504 144 502 134Q486 77 440 33T333 -11Q263 -11 227 52Q186 -10 133 -10H127Q78 -10 57 16T35 71Q35 103 54 123T99 143Q142 143 142 101Q142 81 130 66T107 46T94 41L91 40Q91 39 97 36T113 29T132 26Q168 26 194 71Q203 87 217 139T245 247T261 313Q266 340 266 352Q266 380 251 392T217 404Q177 404 142 372T93 290Q91 281 88 280T72 278H58Q52 284 52 289Z" />
  </defs>
  <g
     inkscape:label="Layer 1"
     inkscape:groupmode="layer"
     id="layer1"
     transform="translate(-16.428559,-13.522288)">
    <g
       id="rect1">
      <path
         style="color:#000000;fill:#000000;fill-opacity:0.1;-inkscape-stroke:none"
         d="m 48.404533,22.442266 h 34.94122 v 34.94122 h -34.94122 z"
         id="path1" />
      <path
         style="color:#000000;fill:#000000;-inkscape-stroke:none"
         d="m 48.228516,22.265625 v 0.175781 35.119141 H 83.521484 V 22.265625 Z m 0.351562,0.353516 h 34.589844 v 34.58789 H 48.580078 Z"
         id="path7" />
    </g>
    <g
       id="path2">
      <path
         style="color:#000000;fill:#0000ff;-inkscape-stroke:none"
         d="M 31.683594,39.927734 V 40.28125 H 44.226562 V 39.927734 Z"
         id="path39" />
      <g
         id="g36">
        <g
           id="path36">
          <path
             style="color:#000000;fill:#0000ff;fill-rule:evenodd;-inkscape-stroke:none"
             d="m 45.244452,40.104354 -1.525764,0.881945 v -1.76389 z"
             id="path37" />
          <path
             style="color:#000000;fill:#0000ff;fill-rule:evenodd;-inkscape-stroke:none"
             d="m 43.601562,39.019531 v 2.169922 l 1.876954,-1.085937 -0.175782,-0.101563 z m 0.234375,0.40625 1.171875,0.679688 -1.171875,0.677734 z"
             id="path38" />
        </g>
      </g>
    </g>
    <g
       id="path4">
      <path
         style="color:#000000;fill:#0000ff;-inkscape-stroke:none"
         d="M 86.1875,39.927734 V 40.28125 H 98.730469 V 39.927734 Z"
         id="path35" />
      <g
         id="g32">
        <g
           id="path32">
          <path
             style="color:#000000;fill:#0000ff;fill-rule:evenodd;-inkscape-stroke:none"
             d="m 99.749259,40.104354 -1.526725,0.8825 v -1.765 z"
             id="path33" />
          <path
             style="color:#000000;fill:#0000ff;fill-rule:evenodd;-inkscape-stroke:none"
             d="m 98.105469,39.017578 v 2.173828 l 1.878906,-1.08789 -0.175781,-0.101563 z m 0.234375,0.408203 1.171875,0.679688 -1.171875,0.677734 z"
             id="path34" />
        </g>
      </g>
    </g>
    <g
       id="path5">
      <path
         style="color:#000000;fill:#000000;-inkscape-stroke:none"
         d="m 48.478516,19.613281 v 0.351563 h 34.867187 v -0.351563 z"
         id="path31" />
      <g
         id="g29">
        <path
           style="color:#000000;fill:#000000;-inkscape-stroke:none"
           d="m 83.169922,18.376953 v 2.822266 h 0.351562 v -2.822266 z"
           id="path30" />
        <path
           style="color:#000000;fill:#000000;-inkscape-stroke:none"
           d="m 48.302734,18.376953 v 2.822266 h 0.351563 v -2.822266 z"
           id="path29" />
      </g>
    </g>
    <path
       id="use11"
       d="m 76.021823,65.263476 q 0.03505,-0.21032 0.270411,-0.485738 0.235357,-0.275418 0.580881,-0.280425 0.175266,0 0.320487,0.09014 0.14522,0.09014 0.215326,0.225342 0.21032,-0.315479 0.505768,-0.315479 0.185281,0 0.320486,0.110167 0.135206,0.110167 0.140213,0.295448 0,0.145221 -0.07011,0.235358 -0.07011,0.09014 -0.135205,0.110167 -0.0651,0.02003 -0.115175,0.02003 -0.09514,0 -0.155236,-0.05508 -0.06009,-0.05508 -0.06009,-0.145221 0,-0.230349 0.25038,-0.315479 -0.05508,-0.0651 -0.200304,-0.0651 -0.0651,0 -0.09514,0.01001 -0.190289,0.08012 -0.280426,0.330501 -0.300456,1.10668 -0.300456,1.291961 0,0.140213 0.08012,0.200304 0.08012,0.06009 0.175266,0.06009 0.185281,0 0.365554,-0.16525 0.180274,-0.165251 0.245373,-0.405616 0.01502,-0.05008 0.03005,-0.05508 0.01502,-0.005 0.08012,-0.01002 h 0.02003 q 0.07511,0 0.07511,0.04006 0,0.005 -0.01001,0.05508 -0.08012,0.285433 -0.310471,0.505767 -0.23035,0.220335 -0.535813,0.220335 -0.350532,0 -0.530806,-0.315479 -0.205311,0.310471 -0.470714,0.310471 h -0.03005 q -0.245372,0 -0.350532,-0.130198 -0.105159,-0.130197 -0.110167,-0.275418 0,-0.160243 0.09514,-0.260395 0.09515,-0.100152 0.225342,-0.100152 0.215327,0 0.215327,0.210319 0,0.100152 -0.06009,0.175266 -0.06009,0.07511 -0.115175,0.100152 -0.05508,0.02504 -0.0651,0.02504 l -0.01502,0.005 q 0,0.005 0.03005,0.02003 0.03005,0.01502 0.08012,0.03505 0.05008,0.02003 0.09514,0.01502 0.180274,0 0.310471,-0.225342 0.04507,-0.08012 0.115175,-0.340516 0.07011,-0.260396 0.140213,-0.540821 0.07011,-0.280426 0.08012,-0.330502 0.02504,-0.135205 0.02504,-0.195296 0,-0.140213 -0.07511,-0.200304 -0.07511,-0.06009 -0.170259,-0.06009 -0.200304,0 -0.37557,0.160243 -0.175266,0.160243 -0.245372,0.410623 -0.01002,0.04507 -0.02504,0.05008 -0.01502,0.005 -0.08012,0.01001 h -0.07011 q -0.03005,-0.03004 -0.03005,-0.05508 z"
       style="stroke-width:0.0050076" />
    <path
       id="use12"
       d="m 79.442454,65.33759 q 0,-0.08497 0.06727,-0.148696 0.06727,-0.06373 0.155776,-0.06727 0.06373,0 0.106211,0.04248 0.04248,0.04248 0.04603,0.106211 0,0.08143 -0.07081,0.148696 -0.07081,0.06727 -0.155776,0.07081 -0.05311,0 -0.09913,-0.0354 -0.04603,-0.0354 -0.04957,-0.116832 z m -0.57708,1.108136 q 0,-0.02832 0.03186,-0.109752 0.03186,-0.08143 0.08497,-0.180559 0.05311,-0.09913 0.155776,-0.180558 0.102671,-0.08143 0.212422,-0.07789 0.138075,0 0.230125,0.08143 0.09205,0.08143 0.09559,0.219503 0,0.06019 -0.04957,0.198261 -0.04957,0.138074 -0.141614,0.371738 -0.09205,0.233665 -0.148696,0.400062 -0.0177,0.07789 -0.0177,0.113292 0,0.08851 0.06019,0.08851 0.03186,0 0.06727,-0.01062 0.0354,-0.01062 0.08143,-0.04956 0.04603,-0.03894 0.09559,-0.123913 0.04957,-0.08497 0.08851,-0.208882 0.01062,-0.04248 0.0177,-0.04957 0.0071,-0.0071 0.06019,-0.0071 0.07081,0 0.07081,0.0354 0,0.02832 -0.03186,0.109752 -0.03186,0.08143 -0.08851,0.180558 -0.05665,0.09913 -0.159316,0.177019 -0.102671,0.07789 -0.219503,0.07789 -0.113292,0 -0.208882,-0.07435 -0.09559,-0.07435 -0.09913,-0.226583 0,-0.06019 0.0177,-0.113292 0.0177,-0.05311 0.152236,-0.403602 0.134534,-0.357578 0.155776,-0.428385 0.02124,-0.07081 0.02478,-0.138075 0,-0.08497 -0.06019,-0.08497 h -0.0071 q -0.106211,0 -0.19472,0.116832 -0.08851,0.116832 -0.134534,0.297391 -0.0035,0.0035 -0.0071,0.01062 -0.0035,0.0071 -0.0035,0.01062 0,0.0035 -0.0071,0.0071 -0.0071,0.0035 -0.01062,0.0035 -0.0035,0 -0.01416,0 -0.01062,0 -0.02832,0 h -0.04957 q -0.02124,-0.02124 -0.02124,-0.03186 z"
       style="stroke-width:0.00354037" />
    <path
       id="use11-7"
       d="m 46.580993,65.413561 q 0.03505,-0.21032 0.270411,-0.485738 0.235357,-0.275418 0.580881,-0.280425 0.175266,0 0.320487,0.09014 0.14522,0.09014 0.215326,0.225342 0.21032,-0.315479 0.505768,-0.315479 0.185281,0 0.320486,0.110167 0.135206,0.110167 0.140213,0.295448 0,0.145221 -0.07011,0.235358 -0.07011,0.09014 -0.135205,0.110167 -0.0651,0.02003 -0.115175,0.02003 -0.09514,0 -0.155236,-0.05508 -0.06009,-0.05508 -0.06009,-0.145221 0,-0.230349 0.25038,-0.315479 -0.05508,-0.0651 -0.200304,-0.0651 -0.0651,0 -0.09514,0.01001 -0.190289,0.08012 -0.280426,0.330501 -0.300456,1.10668 -0.300456,1.291961 0,0.140213 0.08012,0.200304 0.08012,0.06009 0.175266,0.06009 0.185281,0 0.365554,-0.16525 0.180274,-0.165251 0.245373,-0.405616 0.01502,-0.05008 0.03005,-0.05508 0.01502,-0.005 0.08012,-0.01001 h 0.02003 q 0.07511,0 0.07511,0.04006 0,0.005 -0.01002,0.05508 -0.08012,0.285433 -0.310471,0.505767 -0.23035,0.220335 -0.535813,0.220335 -0.350532,0 -0.530806,-0.315479 -0.205311,0.310471 -0.470714,0.310471 h -0.03005 q -0.245372,0 -0.350532,-0.130198 -0.105159,-0.130197 -0.110167,-0.275418 0,-0.160243 0.09514,-0.260395 0.09514,-0.100152 0.225342,-0.100152 0.215327,0 0.215327,0.210319 0,0.100152 -0.06009,0.175266 -0.06009,0.07511 -0.115175,0.100152 -0.05508,0.02504 -0.0651,0.02504 l -0.01502,0.005 q 0,0.005 0.03004,0.02003 0.03005,0.01502 0.08012,0.03505 0.05008,0.02003 0.09514,0.01502 0.180274,0 0.310471,-0.225342 0.04507,-0.08012 0.115175,-0.340516 0.07011,-0.260396 0.140213,-0.540821 0.07011,-0.280426 0.08012,-0.330502 0.02504,-0.135205 0.02504,-0.195296 0,-0.140213 -0.07511,-0.200304 -0.07511,-0.06009 -0.170259,-0.06009 -0.200304,0 -0.37557,0.160243 -0.175266,0.160243 -0.245372,0.410623 -0.01001,0.04507 -0.02504,0.05008 -0.01502,0.005 -0.08012,0.01001 h -0.07011 q -0.03005,-0.03005 -0.03005,-0.05508 z"
       style="stroke-width:0.0050076" />
    <path
       id="use12-3"
       d="m 50.001624,65.487675 q 0,-0.08497 0.06727,-0.148696 0.06727,-0.06373 0.155776,-0.06727 0.06373,0 0.106211,0.04248 0.04248,0.04248 0.04603,0.106211 0,0.08143 -0.07081,0.148696 -0.07081,0.06727 -0.155776,0.07081 -0.05311,0 -0.09913,-0.0354 -0.04603,-0.0354 -0.04957,-0.116832 z m -0.57708,1.108136 q 0,-0.02832 0.03186,-0.109752 0.03186,-0.08143 0.08497,-0.180559 0.05311,-0.09913 0.155776,-0.180558 0.102671,-0.08143 0.212422,-0.07789 0.138075,0 0.230125,0.08143 0.09205,0.08143 0.09559,0.219503 0,0.06019 -0.04956,0.198261 -0.04957,0.138074 -0.141614,0.371738 -0.09205,0.233665 -0.148696,0.400062 -0.0177,0.07789 -0.0177,0.113292 0,0.08851 0.06019,0.08851 0.03186,0 0.06727,-0.01062 0.0354,-0.01062 0.08143,-0.04957 0.04603,-0.03894 0.09559,-0.123913 0.04957,-0.08497 0.08851,-0.208882 0.01062,-0.04248 0.0177,-0.04957 0.0071,-0.0071 0.06019,-0.0071 0.07081,0 0.07081,0.0354 0,0.02832 -0.03186,0.109752 -0.03186,0.08143 -0.08851,0.180558 -0.05665,0.09913 -0.159316,0.177019 -0.102671,0.07789 -0.219503,0.07789 -0.113292,0 -0.208882,-0.07435 -0.09559,-0.07435 -0.09913,-0.226583 0,-0.06019 0.0177,-0.113292 0.0177,-0.05311 0.152236,-0.403602 0.134534,-0.357578 0.155776,-0.428385 0.02124,-0.07081 0.02478,-0.138075 0,-0.08497 -0.06019,-0.08497 h -0.0071 q -0.106211,0 -0.19472,0.116832 -0.08851,0.116832 -0.134534,0.297391 -0.0035,0.0035 -0.0071,0.01062 -0.0035,0.0071 -0.0035,0.01062 0,0.0035 -0.0071,0.0071 -0.0071,0.0035 -0.01062,0.0035 -0.0035,0 -0.01416,0 -0.01062,0 -0.02832,0 h -0.04957 q -0.02124,-0.02124 -0.02124,-0.03186 z"
       style="stroke-width:0.00354037" />
    <path
       id="use14"
       d="m 81.655873,65.523871 q 0,0 0,-0.0651 0,-0.0651 0.07011,-0.100152 h 1.497272 v -0.75114 l 0.005,-0.75114 q 0.05008,-0.0651 0.09514,-0.0651 0.0651,0 0.100152,0.07511 v 1.492265 h 1.492265 q 0.07511,0.04006 0.07511,0.100152 0,0.06009 -0.07511,0.100152 h -1.492265 v 1.492265 q -0.04006,0.07011 -0.09014,0.07011 h -0.01002 -0.01001 q -0.06009,0 -0.09014,-0.07011 v -1.492265 h -1.497272 q -0.07011,-0.03505 -0.07011,-0.100152 z"
       style="stroke-width:0.0050076" />
    <path
       id="use15"
       d="m 88.217333,63.290481 q 0.005,0 0.360547,-0.02504 0.355539,-0.02504 0.365555,-0.03004 0.06009,0 0.06009,0.04006 0,0.03505 -0.365555,1.512296 -0.365555,1.477242 -0.37557,1.507287 -0.01001,0.03005 -0.005,0.07511 0,0.210319 0.140213,0.210319 0.04507,-0.005 0.100152,-0.04507 0.10516,-0.100152 0.205312,-0.48073 0.03005,-0.100152 0.05008,-0.105159 0.01001,-0.005 0.05008,-0.005 h 0.02003 0.02003 q 0.07511,0 0.07511,0.04006 0,0.02504 -0.01502,0.08012 -0.0651,0.25038 -0.150228,0.405615 -0.08513,0.155236 -0.140213,0.200304 -0.05508,0.04507 -0.140213,0.08012 -0.04006,0.01002 -0.120182,0.01002 -0.170259,0 -0.285433,-0.07511 -0.115175,-0.07511 -0.150228,-0.155236 l -0.03005,-0.07511 q -0.005,-0.005 -0.02003,0.005 -0.01002,0.01002 -0.02003,0.02003 -0.295448,0.280426 -0.600912,0.280426 -0.275418,0 -0.485737,-0.200304 -0.210319,-0.200304 -0.210319,-0.635965 0,-0.240365 0.100152,-0.490745 0.100152,-0.25038 0.240365,-0.430654 0.235357,-0.285433 0.470714,-0.3956 0.235357,-0.110167 0.425646,-0.110167 0.280426,0 0.420638,0.210319 0.02504,0.03005 0.02504,0.02003 0.005,-0.02003 0.135206,-0.545828 0.130197,-0.525798 0.140212,-0.555844 0,-0.0651 -0.03505,-0.08012 -0.03505,-0.01502 -0.195296,-0.02504 h -0.10516 q -0.03005,-0.03005 -0.03005,-0.04006 0,-0.01002 0.01002,-0.09514 0.02504,-0.09515 0.0651,-0.09515 z m -0.07011,1.787713 q -0.115175,-0.3956 -0.37557,-0.3956 -0.175266,0 -0.335509,0.155236 -0.160243,0.155235 -0.25038,0.405615 -0.14522,0.395601 -0.205312,0.821247 0,0.01502 0,0.05508 0,0.04006 -0.005,0.06009 0,0.225342 0.09014,0.310472 0.09014,0.08513 0.215326,0.09014 0.270411,0 0.555844,-0.360547 l 0.04006,-0.05508 z"
       style="stroke-width:0.0050076" />
    <path
       id="use16"
       d="m 89.248896,65.263476 q 0.03505,-0.21032 0.270411,-0.485738 0.235357,-0.275418 0.580881,-0.280425 0.175266,0 0.320487,0.09014 0.14522,0.09014 0.215326,0.225342 0.21032,-0.315479 0.505768,-0.315479 0.185281,0 0.320486,0.110167 0.135206,0.110167 0.140213,0.295448 0,0.145221 -0.07011,0.235358 -0.07011,0.09014 -0.135205,0.110167 -0.0651,0.02003 -0.115175,0.02003 -0.09515,0 -0.155236,-0.05508 -0.06009,-0.05508 -0.06009,-0.145221 0,-0.230349 0.25038,-0.315479 -0.05508,-0.0651 -0.200304,-0.0651 -0.0651,0 -0.09514,0.01001 -0.190289,0.08012 -0.280426,0.330501 -0.300456,1.10668 -0.300456,1.291961 0,0.140213 0.08012,0.200304 0.08012,0.06009 0.175266,0.06009 0.185281,0 0.365554,-0.16525 0.180274,-0.165251 0.245373,-0.405616 0.01502,-0.05008 0.03005,-0.05508 0.01502,-0.005 0.08012,-0.01002 h 0.02003 q 0.07511,0 0.07511,0.04006 0,0.005 -0.01002,0.05508 -0.08012,0.285433 -0.310471,0.505767 -0.23035,0.220335 -0.535813,0.220335 -0.350532,0 -0.530806,-0.315479 -0.205311,0.310471 -0.470714,0.310471 h -0.03005 q -0.245372,0 -0.350532,-0.130198 -0.105159,-0.130197 -0.110167,-0.275418 0,-0.160243 0.09514,-0.260395 0.09515,-0.100152 0.225342,-0.100152 0.215327,0 0.215327,0.210319 0,0.100152 -0.06009,0.175266 -0.06009,0.07511 -0.115175,0.100152 -0.05508,0.02504 -0.0651,0.02504 l -0.01502,0.005 q 0,0.005 0.03005,0.02003 0.03005,0.01502 0.08012,0.03505 0.05008,0.02003 0.09514,0.01502 0.180274,0 0.310471,-0.225342 0.04507,-0.08012 0.115175,-0.340516 0.07011,-0.260396 0.140213,-0.540821 0.07011,-0.280426 0.08012,-0.330502 0.02504,-0.135205 0.02504,-0.195296 0,-0.140213 -0.07511,-0.200304 -0.07511,-0.06009 -0.170259,-0.06009 -0.200304,0 -0.37557,0.160243 -0.175266,0.160243 -0.245372,0.410623 -0.01001,0.04507 -0.02504,0.05008 -0.01502,0.005 -0.08012,0.01001 h -0.07011 q -0.03005,-0.03004 -0.03005,-0.05508 z"
       style="stroke-width:0.0050076" />
    <path
       id="use17"
       d="m 92.669529,65.33759 q 0,-0.08497 0.06727,-0.148696 0.06727,-0.06373 0.155776,-0.06727 0.06373,0 0.106211,0.04248 0.04248,0.04248 0.04603,0.106211 0,0.08143 -0.07081,0.148696 -0.07081,0.06727 -0.155776,0.07081 -0.05311,0 -0.09913,-0.0354 -0.04603,-0.0354 -0.04957,-0.116832 z m -0.57708,1.108136 q 0,-0.02832 0.03186,-0.109752 0.03186,-0.08143 0.08497,-0.180559 0.05311,-0.09913 0.155776,-0.180558 0.102671,-0.08143 0.212422,-0.07789 0.138075,0 0.230125,0.08143 0.09205,0.08143 0.09559,0.219503 0,0.06019 -0.04957,0.198261 -0.04957,0.138074 -0.141614,0.371738 -0.09205,0.233665 -0.148696,0.400062 -0.0177,0.07789 -0.0177,0.113292 0,0.08851 0.06019,0.08851 0.03186,0 0.06727,-0.01062 0.0354,-0.01062 0.08143,-0.04956 0.04603,-0.03894 0.09559,-0.123913 0.04957,-0.08497 0.08851,-0.208882 0.01062,-0.04248 0.0177,-0.04957 0.0071,-0.0071 0.06019,-0.0071 0.07081,0 0.07081,0.0354 0,0.02832 -0.03186,0.109752 -0.03186,0.08143 -0.08851,0.180558 -0.05665,0.09913 -0.159316,0.177019 -0.102671,0.07789 -0.219503,0.07789 -0.113292,0 -0.208882,-0.07435 -0.09559,-0.07435 -0.09913,-0.226583 0,-0.06019 0.0177,-0.113292 0.0177,-0.05311 0.152236,-0.403602 0.134534,-0.357578 0.155776,-0.428385 0.02124,-0.07081 0.02478,-0.138075 0,-0.08497 -0.06019,-0.08497 h -0.0071 q -0.106211,0 -0.19472,0.116832 -0.08851,0.116832 -0.134534,0.297391 -0.0035,0.0035 -0.0071,0.01062 -0.0035,0.0071 -0.0035,0.01062 0,0.0035 -0.0071,0.0071 -0.0071,0.0035 -0.01062,0.0035 -0.0035,0 -0.01416,0 -0.01062,0 -0.02832,0 h -0.04957 q -0.02124,-0.02124 -0.02124,-0.03186 z"
       style="stroke-width:0.00354037" />
    <path
       id="use15-1"
       d="m 64.732948,13.577371 q 0.005,0 0.360547,-0.02504 0.355539,-0.02504 0.365555,-0.03005 0.06009,0 0.06009,0.04006 0,0.03505 -0.365555,1.512296 -0.365555,1.477242 -0.37557,1.507287 -0.01001,0.03005 -0.005,0.07511 0,0.210319 0.140213,0.210319 0.04507,-0.005 0.100152,-0.04507 0.10516,-0.100152 0.205312,-0.48073 0.03005,-0.100152 0.05008,-0.105159 0.01001,-0.005 0.05008,-0.005 h 0.02003 0.02003 q 0.07511,0 0.07511,0.04006 0,0.02504 -0.01502,0.08012 -0.0651,0.25038 -0.150228,0.405615 -0.08513,0.155236 -0.140213,0.200304 -0.05508,0.04507 -0.140213,0.08012 -0.04006,0.01001 -0.120182,0.01001 -0.170259,0 -0.285433,-0.07511 -0.115175,-0.07511 -0.150228,-0.155236 l -0.03005,-0.07511 q -0.005,-0.005 -0.02003,0.005 -0.01002,0.01002 -0.02003,0.02003 -0.295448,0.280426 -0.600912,0.280426 -0.275418,0 -0.485737,-0.200304 -0.210319,-0.200304 -0.210319,-0.635965 0,-0.240365 0.100152,-0.490745 0.100152,-0.25038 0.240365,-0.430654 0.235357,-0.285433 0.470714,-0.3956 0.235357,-0.110167 0.425646,-0.110167 0.280426,0 0.420638,0.210319 0.02504,0.03005 0.02504,0.02003 0.005,-0.02003 0.135206,-0.545828 0.130197,-0.525798 0.140212,-0.555844 0,-0.0651 -0.03505,-0.08012 -0.03505,-0.01502 -0.195296,-0.02504 h -0.10516 q -0.03005,-0.03005 -0.03005,-0.04006 0,-0.01001 0.01002,-0.09514 0.02504,-0.09515 0.0651,-0.09515 z m -0.07011,1.787713 q -0.115175,-0.3956 -0.37557,-0.3956 -0.175266,0 -0.335509,0.155236 -0.160243,0.155235 -0.25038,0.405615 -0.14522,0.395601 -0.205312,0.821247 0,0.01502 0,0.05508 0,0.04006 -0.005,0.06009 0,0.225342 0.09014,0.310472 0.09014,0.08513 0.215326,0.09014 0.270411,0 0.555844,-0.360547 l 0.04006,-0.05508 z"
       style="stroke-width:0.0050076" />
    <path
       id="use16-9"
       d="m 65.764511,15.550366 q 0.03505,-0.21032 0.270411,-0.485738 0.235357,-0.275418 0.580881,-0.280425 0.175266,0 0.320487,0.09014 0.14522,0.09014 0.215326,0.225342 0.21032,-0.315479 0.505768,-0.315479 0.185281,0 0.320486,0.110167 0.135206,0.110167 0.140213,0.295448 0,0.145221 -0.07011,0.235358 -0.07011,0.09014 -0.135205,0.110167 -0.0651,0.02003 -0.115175,0.02003 -0.09515,0 -0.155236,-0.05508 -0.06009,-0.05508 -0.06009,-0.145221 0,-0.230349 0.25038,-0.315479 -0.05508,-0.0651 -0.200304,-0.0651 -0.0651,0 -0.09514,0.01002 -0.190289,0.08012 -0.280426,0.330501 -0.300456,1.10668 -0.300456,1.291961 0,0.140213 0.08012,0.200304 0.08012,0.06009 0.175266,0.06009 0.185281,0 0.365554,-0.16525 0.180274,-0.165251 0.245373,-0.405616 0.01502,-0.05008 0.03005,-0.05508 0.01502,-0.005 0.08012,-0.01001 h 0.02003 q 0.07511,0 0.07511,0.04006 0,0.005 -0.01001,0.05508 -0.08012,0.285433 -0.310471,0.505767 -0.23035,0.220335 -0.535813,0.220335 -0.350532,0 -0.530806,-0.315479 -0.205311,0.310471 -0.470714,0.310471 h -0.03005 q -0.245372,0 -0.350532,-0.130198 -0.105159,-0.130197 -0.110167,-0.275418 0,-0.160243 0.09514,-0.260395 0.09515,-0.100152 0.225342,-0.100152 0.215327,0 0.215327,0.210319 0,0.100152 -0.06009,0.175266 -0.06009,0.07511 -0.115175,0.100152 -0.05508,0.02504 -0.0651,0.02504 l -0.01502,0.005 q 0,0.005 0.03005,0.02003 0.03005,0.01502 0.08012,0.03505 0.05008,0.02003 0.09514,0.01502 0.180274,0 0.310471,-0.225342 0.04507,-0.08012 0.115175,-0.340516 0.07011,-0.260396 0.140213,-0.540821 0.07011,-0.280426 0.08012,-0.330502 0.02504,-0.135205 0.02504,-0.195296 0,-0.140213 -0.07511,-0.200304 -0.07511,-0.06009 -0.170259,-0.06009 -0.200304,0 -0.37557,0.160243 -0.175266,0.160243 -0.245372,0.410623 -0.01002,0.04507 -0.02504,0.05008 -0.01502,0.005 -0.08012,0.01002 h -0.07011 q -0.03005,-0.03004 -0.03005,-0.05508 z"
       style="stroke-width:0.0050076" />
    <path
       id="use17-4"
       d="m 69.185144,15.62448 q 0,-0.08497 0.06727,-0.148696 0.06727,-0.06373 0.155776,-0.06727 0.06373,0 0.106211,0.04249 0.04248,0.04248 0.04603,0.106211 0,0.08143 -0.07081,0.148696 -0.07081,0.06727 -0.155776,0.07081 -0.05311,0 -0.09913,-0.0354 -0.04603,-0.0354 -0.04957,-0.116832 z m -0.57708,1.108136 q 0,-0.02832 0.03186,-0.109752 0.03186,-0.08143 0.08497,-0.180559 0.05311,-0.09913 0.155776,-0.180558 0.102671,-0.08143 0.212422,-0.07789 0.138075,0 0.230125,0.08143 0.09205,0.08143 0.09559,0.219503 0,0.06019 -0.04957,0.198261 -0.04957,0.138074 -0.141614,0.371738 -0.09205,0.233665 -0.148696,0.400062 -0.0177,0.07789 -0.0177,0.113292 0,0.08851 0.06019,0.08851 0.03186,0 0.06727,-0.01062 0.0354,-0.01062 0.08143,-0.04957 0.04603,-0.03894 0.09559,-0.123913 0.04957,-0.08497 0.08851,-0.208882 0.01062,-0.04248 0.0177,-0.04956 0.0071,-0.0071 0.06019,-0.0071 0.07081,0 0.07081,0.0354 0,0.02832 -0.03186,0.109752 -0.03186,0.08143 -0.08851,0.180558 -0.05665,0.09913 -0.159316,0.177019 -0.102671,0.07789 -0.219503,0.07789 -0.113292,0 -0.208882,-0.07435 -0.09559,-0.07435 -0.09913,-0.226583 0,-0.06019 0.0177,-0.113292 0.0177,-0.05311 0.152236,-0.403602 0.134534,-0.357578 0.155776,-0.428385 0.02124,-0.07081 0.02478,-0.138075 0,-0.08497 -0.06019,-0.08497 h -0.0071 q -0.106211,0 -0.19472,0.116832 -0.08851,0.116832 -0.134534,0.297391 -0.0035,0.0035 -0.0071,0.01062 -0.0035,0.0071 -0.0035,0.01062 0,0.0035 -0.0071,0.0071 -0.0071,0.0035 -0.01062,0.0035 -0.0035,0 -0.01416,0 -0.01062,0 -0.02832,0 h -0.04957 q -0.02124,-0.02124 -0.02124,-0.03186 z"
       style="stroke-width:0.00354037" />
    <path
       id="use21"
       d="m 16.428559,40.594124 q 0,-0.345524 0.05008,-0.655996 0.05008,-0.310471 0.115175,-0.535813 0.0651,-0.225342 0.185281,-0.440669 0.120183,-0.215326 0.190289,-0.335509 0.07011,-0.120182 0.210319,-0.260395 0.140213,-0.140213 0.165251,-0.170258 0.02504,-0.03005 0.12519,-0.10516 h 0.0651 0.02003 q 0.07011,0 0.07011,0.04507 0,0.01502 -0.08513,0.10516 -0.08513,0.09014 -0.205312,0.265403 -0.120182,0.175266 -0.245372,0.430653 -0.12519,0.255388 -0.21032,0.691049 -0.08513,0.435661 -0.08513,0.966467 0,0.530806 0.08513,0.961459 0.08513,0.430654 0.205312,0.696057 0.120182,0.265402 0.245372,0.430653 0.12519,0.165251 0.21032,0.265403 0.08513,0.100152 0.08513,0.10516 0,0.04507 -0.07511,0.04507 h -0.01502 -0.0651 L 17.329927,42.977742 Q 16.859213,42.552096 16.643886,41.91613 16.428559,41.280165 16.428559,40.594124 Z"
       style="fill:#0000ff;stroke-width:0.0050076" />
    <path
       id="use22"
       d="m 18.010963,40.408843 q 0.005,-0.03005 0.01502,-0.08012 0.01002,-0.05008 0.06009,-0.190289 0.05008,-0.140212 0.100152,-0.235357 0.05008,-0.09514 0.160243,-0.185281 0.110167,-0.09014 0.220334,-0.08513 0.110167,0.005 0.215327,0.03505 0.10516,0.03005 0.150228,0.09014 0.04507,0.06009 0.08012,0.110167 0.03505,0.05008 0.04006,0.09514 l 0.01002,0.03505 q 0,0.01001 0.005,0.01001 l 0.05508,-0.05508 q 0.300456,-0.320486 0.706071,-0.320486 0.08513,0 0.155236,0.01001 0.07011,0.01002 0.130198,0.03505 0.06009,0.02504 0.09514,0.05008 0.03505,0.02504 0.07511,0.06009 0.04006,0.03505 0.05008,0.0651 0.01001,0.03005 0.04006,0.0651 0.03005,0.03505 0.02003,0.06009 -0.01002,0.02504 0.01502,0.04507 0.02504,0.02003 0.01001,0.03505 l 0.04006,-0.05008 q 0.315479,-0.37557 0.746132,-0.37557 0.270411,0 0.435662,0.135205 0.16525,0.135205 0.170258,0.3956 0,0.255388 -0.190289,0.791201 -0.190289,0.535813 -0.190289,0.640973 0.005,0.07011 0.02504,0.09514 0.02003,0.02504 0.07511,0.02504 0.140213,0 0.260396,-0.150228 0.120182,-0.150228 0.195296,-0.410623 0.01502,-0.05508 0.03005,-0.0651 0.01502,-0.01001 0.08012,-0.01001 0.100152,0 0.100152,0.04006 0,0.005 -0.02003,0.07511 -0.04006,0.14522 -0.110167,0.285433 -0.07011,0.140213 -0.23035,0.280426 -0.160243,0.140213 -0.345524,0.135205 -0.235358,0 -0.340517,-0.135205 -0.10516,-0.135205 -0.10516,-0.280426 0,-0.09514 0.180274,-0.600912 0.180273,-0.505767 0.185281,-0.761155 0,-0.295448 -0.220334,-0.295448 h -0.02504 q -0.430654,0 -0.726102,0.505767 l -0.03505,0.06009 -0.16525,0.671019 q -0.165251,0.655995 -0.190289,0.706071 -0.0651,0.135206 -0.215327,0.135206 -0.0651,0 -0.10516,-0.03505 -0.04006,-0.03505 -0.05508,-0.06009 -0.01502,-0.02504 -0.01502,-0.05008 0,-0.05508 0.170258,-0.716087 l 0.180274,-0.731109 q 0.01502,-0.07511 0.01502,-0.190289 0,-0.295448 -0.220335,-0.295448 h -0.02504 q -0.430653,0 -0.726102,0.505767 l -0.03505,0.06009 -0.165251,0.671019 q -0.16525,0.655995 -0.190288,0.706071 -0.0651,0.135206 -0.215327,0.135206 -0.0651,0 -0.10516,-0.03005 -0.04006,-0.03005 -0.05508,-0.06009 -0.01502,-0.03005 -0.01002,-0.05008 0,-0.0651 0.190289,-0.821247 0.195297,-0.77117 0.195297,-0.806223 0.01502,-0.07511 0.01502,-0.135205 0,-0.180274 -0.12519,-0.180274 -0.110167,0 -0.185281,0.140213 -0.07511,0.140213 -0.115175,0.305463 -0.04006,0.165251 -0.06009,0.180274 -0.01001,0.01001 -0.08012,0.01001 h -0.07011 q -0.03005,-0.03005 -0.03005,-0.04507 z"
       style="fill:#0000ff;stroke-width:0.0050076" />
    <path
       id="use23"
       d="m 19.803682,38.806412 q 0,-0.140213 0.09014,-0.220335 0.09014,-0.08012 0.220334,-0.08012 0.115175,0.01002 0.200304,0.08513 0.08513,0.07511 0.08513,0.215327 0,0.150228 -0.08513,0.225342 -0.08513,0.07511 -0.210319,0.07511 -0.12519,0 -0.210319,-0.07511 -0.08513,-0.07511 -0.09014,-0.225342 z"
       style="fill:#0000ff;stroke-width:0.0050076" />
    <path
       id="use26"
       d="m 22.566855,41.825363 q 0,-0.19472 0.07081,-0.354037 0.07081,-0.159316 0.177018,-0.258447 0.106211,-0.09913 0.230124,-0.148695 0.123913,-0.04956 0.233665,-0.05311 0.187639,0 0.322173,0.06373 0.134534,0.06373 0.205342,0.177018 0.07081,0.113292 0.09913,0.226584 0.02832,0.113292 0.03186,0.251366 0,0.02478 -0.02478,0.04957 h -0.998384 v 0.05311 q 0,0.523975 0.354037,0.637267 0.07081,0.02124 0.155776,0.02124 0.148695,0 0.254907,-0.113292 0.06019,-0.06019 0.09559,-0.148695 l 0.0354,-0.08497 q 0.01062,-0.01062 0.05665,-0.01062 h 0.01062 q 0.06019,0 0.06019,0.0354 0,0.01416 -0.01062,0.04603 -0.06727,0.19472 -0.223043,0.308012 -0.155776,0.113292 -0.350497,0.113292 -0.336335,0 -0.559378,-0.244285 -0.223043,-0.244286 -0.226584,-0.56646 z m 1.079813,-0.201801 q -0.03894,-0.453167 -0.336335,-0.48149 h -0.0071 q -0.02832,0 -0.05665,0.0035 -0.02832,0.0035 -0.08851,0.02832 -0.06019,0.02478 -0.102671,0.07435 -0.04248,0.04957 -0.08143,0.145155 -0.03894,0.09559 -0.05665,0.233665 v 0.02478 h 0.729316 z"
       style="fill:#0000ff;stroke-width:0.00354037" />
    <path
       id="use27"
       d="m 24.283935,40.441079 q 0,-0.09913 0.06373,-0.155777 0.06373,-0.05665 0.155776,-0.05665 0.08143,0.0071 0.141615,0.06019 0.06019,0.05311 0.06019,0.152236 0,0.106211 -0.06019,0.159316 -0.06019,0.05311 -0.148695,0.05311 -0.08851,0 -0.148696,-0.05311 -0.06019,-0.05311 -0.06373,-0.159315 z m 0.630185,2.156085 q -0.05311,-0.01062 -0.368198,-0.01062 -0.03894,0 -0.130994,0 -0.09205,0 -0.177018,0.0071 l -0.07789,0.0035 H 24.1317 v -0.162857 h 0.05665 q 0.09913,0 0.173478,-0.01062 0.03186,-0.01416 0.03894,-0.03894 0.0071,-0.02478 0.0071,-0.148696 v -0.364658 -0.311552 q 0,-0.1841 -0.0071,-0.233665 -0.0071,-0.04957 -0.04956,-0.06727 -0.04957,-0.02478 -0.166398,-0.02478 h -0.03894 v -0.08143 q 0,-0.08143 0.0071,-0.08143 l 0.0354,-0.0035 q 0.0354,-0.0035 0.09913,-0.0071 0.06373,-0.0035 0.127453,-0.0071 0.06019,-0.0035 0.127454,-0.0071 0.06727,-0.0035 0.10267,-0.01062 0.0354,-0.0071 0.03894,-0.0035 h 0.01062 v 1.345341 q 0.0177,0.0354 0.04248,0.04248 0.02478,0.0071 0.123913,0.01416 h 0.08143 v 0.162857 z"
       style="fill:#0000ff;stroke-width:0.00354037" />
    <path
       id="use28"
       d="m 25.169026,42.434307 h 0.04957 q 0.138075,0 0.166398,-0.04956 v -0.02832 q 0,-0.03186 0,-0.08143 0,-0.04957 0,-0.109751 0,-0.06019 0.0035,-0.138075 0.0035,-0.07789 0,-0.148695 0,-0.109752 0,-0.233665 0,-0.123912 -0.0035,-0.208881 V 41.3545 q -0.01062,-0.06727 -0.04957,-0.08851 -0.03894,-0.02124 -0.159317,-0.03186 h -0.06373 V 41.1527 q 0,-0.08143 0.0071,-0.08143 l 0.0354,-0.0035 q 0.0354,-0.0035 0.09913,-0.0071 0.06373,-0.0035 0.130994,-0.0071 0.06019,-0.0035 0.127453,-0.0071 0.06727,-0.0035 0.102671,-0.01062 0.0354,-0.0071 0.03894,-0.0035 h 0.01062 v 0.141615 q 0,0.134534 0.0035,0.134534 0.0035,0 0.0177,-0.0177 0.01416,-0.0177 0.04248,-0.05311 0.02832,-0.0354 0.06727,-0.06373 0.03894,-0.02832 0.10267,-0.06727 0.06373,-0.03894 0.134534,-0.05665 0.07081,-0.0177 0.180559,-0.0177 0.403602,0.01416 0.449627,0.400062 0.0035,0.02478 0.0035,0.492112 v 0.304472 q 0,0.134534 0.0071,0.159316 0.0071,0.02478 0.03894,0.0354 0.07435,0.01062 0.173479,0.01062 h 0.05665 v 0.162857 h -0.02832 l -0.08497,-0.0035 q -0.08143,-0.0035 -0.177019,-0.0035 -0.09559,0 -0.134534,-0.0035 -0.364658,0 -0.396521,0.01062 h -0.02832 v -0.162857 h 0.05665 q 0.215962,0 0.215962,-0.05665 0.0035,-0.0071 0.0035,-0.488571 -0.0035,-0.47795 -0.0071,-0.506273 -0.02124,-0.09913 -0.07081,-0.148695 -0.04956,-0.04957 -0.08497,-0.06019 -0.0354,-0.01062 -0.09205,-0.0071 -0.159317,0 -0.279689,0.120372 -0.09559,0.09559 -0.120373,0.19472 -0.02478,0.09913 -0.02832,0.293851 v 0.226584 0.212422 q 0,0.106211 0.0035,0.141615 0.0035,0.0354 0.01062,0.04603 0.0071,0.01062 0.03186,0.02124 0.07435,0.01062 0.173478,0.01062 h 0.05665 v 0.162857 h -0.02832 l -0.08143,-0.0035 q -0.08497,-0.0035 -0.180559,-0.0035 -0.09559,0 -0.134534,-0.0035 -0.364658,0 -0.396522,0.01062 h -0.02832 v -0.162857 z"
       style="fill:#0000ff;stroke-width:0.00354037" />
    <path
       id="use31"
       d="m 27.543927,38.095332 0.02003,-0.005 q 0.02504,0 0.05008,0 h 0.06009 l 0.140212,0.120182 q 0.470715,0.425646 0.686042,1.061612 0.215326,0.635965 0.215326,1.322006 0,0.340517 -0.05008,0.655996 -0.05008,0.315478 -0.115174,0.535813 -0.0651,0.220334 -0.185282,0.440669 -0.120182,0.220334 -0.190288,0.335509 -0.07011,0.115175 -0.205312,0.255387 -0.135205,0.140213 -0.160243,0.165251 -0.02504,0.02504 -0.115175,0.09515 -0.01502,0.01502 -0.02003,0.02003 h -0.06009 q -0.04006,0 -0.05508,0 -0.01502,0 -0.02504,-0.01502 -0.01001,-0.01502 -0.01502,-0.04507 0.005,-0.005 0.05508,-0.0651 0.776178,-0.806224 0.776178,-2.37861 0,-1.572386 -0.776178,-2.37861 -0.05008,-0.06009 -0.05508,-0.0651 0,-0.04006 0.02504,-0.05508 z"
       style="fill:#0000ff;stroke-width:0.0050076" />
    <path
       id="use32"
       d="m 30.008109,40.472942 q 0,-0.08497 0.06727,-0.148696 0.06727,-0.06373 0.155776,-0.06727 0.06373,0 0.106211,0.04248 0.04248,0.04248 0.04603,0.106211 0,0.08143 -0.07081,0.148696 -0.07081,0.06727 -0.155776,0.07081 -0.05311,0 -0.09913,-0.0354 -0.04603,-0.0354 -0.04956,-0.116832 z m -0.57708,1.108136 q 0,-0.02832 0.03186,-0.109752 0.03186,-0.08143 0.08497,-0.180559 0.05311,-0.09913 0.155776,-0.180558 0.102671,-0.08143 0.212422,-0.07789 0.138075,0 0.230125,0.08143 0.09205,0.08143 0.09559,0.219503 0,0.06019 -0.04956,0.198261 -0.04957,0.138074 -0.141614,0.371738 -0.09205,0.233665 -0.148696,0.400062 -0.0177,0.07789 -0.0177,0.113292 0,0.08851 0.06019,0.08851 0.03186,0 0.06727,-0.01062 0.0354,-0.01062 0.08143,-0.04957 0.04603,-0.03894 0.09559,-0.123913 0.04957,-0.08497 0.08851,-0.208882 0.01062,-0.04248 0.0177,-0.04957 0.0071,-0.0071 0.06019,-0.0071 0.07081,0 0.07081,0.0354 0,0.02832 -0.03186,0.109752 -0.03186,0.08143 -0.08851,0.180558 -0.05665,0.09913 -0.159316,0.177019 -0.102671,0.07789 -0.219503,0.07789 -0.113292,0 -0.208882,-0.07435 -0.09559,-0.07435 -0.09913,-0.226583 0,-0.06019 0.0177,-0.113292 0.0177,-0.05311 0.152236,-0.403602 0.134534,-0.357578 0.155776,-0.428385 0.02124,-0.07081 0.02478,-0.138075 0,-0.08497 -0.06019,-0.08497 h -0.0071 q -0.106211,0 -0.19472,0.116832 -0.08851,0.116832 -0.134534,0.297391 -0.0035,0.0035 -0.0071,0.01062 -0.0035,0.0071 -0.0035,0.01062 0,0.0035 -0.0071,0.0071 -0.0071,0.0035 -0.01062,0.0035 -0.0035,0 -0.01416,0 -0.01062,0 -0.02832,0 h -0.04957 q -0.02124,-0.02124 -0.02124,-0.03186 z"
       style="fill:#0000ff;stroke-width:0.00354037" />
    <path
       id="use36"
       d="m 101.36024,39.974627 q 0,-0.345524 0.0501,-0.655996 0.0501,-0.310471 0.11518,-0.535813 0.0651,-0.225342 0.18528,-0.440669 0.12018,-0.215326 0.19029,-0.335509 0.0701,-0.120182 0.21031,-0.260395 0.14022,-0.140213 0.16526,-0.170258 0.025,-0.03005 0.12519,-0.10516 h 0.0651 0.02 q 0.0701,0 0.0701,0.04507 0,0.01502 -0.0851,0.10516 -0.0851,0.09014 -0.20531,0.265403 -0.12018,0.175266 -0.24537,0.430653 -0.12519,0.255388 -0.21032,0.691049 -0.0851,0.435661 -0.0851,0.966467 0,0.530806 0.0851,0.961459 0.0851,0.430654 0.20531,0.696057 0.12018,0.265402 0.24537,0.430653 0.12519,0.165251 0.21032,0.265403 0.0851,0.100152 0.0851,0.10516 0,0.04507 -0.0751,0.04507 h -0.015 -0.0651 l -0.14022,-0.120182 q -0.47071,-0.425646 -0.68604,-1.061612 -0.21533,-0.635965 -0.21533,-1.322006 z"
       style="fill:#0000ff;stroke-width:0.0050076" />
    <path
       id="use37"
       d="m 102.94265,39.789346 q 0.005,-0.03005 0.015,-0.08012 0.01,-0.05008 0.0601,-0.190289 0.0501,-0.140212 0.10016,-0.235357 0.0501,-0.09514 0.16024,-0.185281 0.11017,-0.09014 0.22033,-0.08513 0.11017,0.005 0.21533,0.03505 0.10516,0.03005 0.15023,0.09014 0.0451,0.06009 0.0801,0.110167 0.035,0.05008 0.0401,0.09514 l 0.01,0.03505 q 0,0.01001 0.005,0.01001 l 0.0551,-0.05508 q 0.30045,-0.320486 0.70607,-0.320486 0.0851,0 0.15523,0.01002 0.0701,0.01001 0.1302,0.03505 0.0601,0.02504 0.0952,0.05008 0.035,0.02504 0.0751,0.06009 0.0401,0.03505 0.0501,0.0651 0.01,0.03005 0.0401,0.0651 0.03,0.03505 0.02,0.06009 -0.01,0.02504 0.015,0.04507 0.025,0.02003 0.01,0.03505 l 0.0401,-0.05008 q 0.31547,-0.37557 0.74613,-0.37557 0.27041,0 0.43566,0.135205 0.16525,0.135205 0.17026,0.3956 0,0.255388 -0.19029,0.791201 -0.19029,0.535813 -0.19029,0.640973 0.005,0.07011 0.025,0.09514 0.02,0.02504 0.0751,0.02504 0.14022,0 0.2604,-0.150228 0.12018,-0.150228 0.19529,-0.410623 0.015,-0.05508 0.0301,-0.0651 0.015,-0.01002 0.0801,-0.01002 0.10015,0 0.10015,0.04006 0,0.005 -0.02,0.07511 -0.0401,0.14522 -0.11016,0.285433 -0.0701,0.140213 -0.23035,0.280426 -0.16025,0.140213 -0.34553,0.135205 -0.23536,0 -0.34052,-0.135205 -0.10515,-0.135205 -0.10515,-0.280426 0,-0.09514 0.18027,-0.600912 0.18027,-0.505767 0.18528,-0.761155 0,-0.295448 -0.22033,-0.295448 h -0.025 q -0.43066,0 -0.7261,0.505767 l -0.0351,0.06009 -0.16525,0.671019 q -0.16525,0.655995 -0.19029,0.706071 -0.0651,0.135206 -0.21532,0.135206 -0.0651,0 -0.10516,-0.03505 -0.0401,-0.03505 -0.0551,-0.06009 -0.015,-0.02504 -0.015,-0.05008 0,-0.05508 0.17026,-0.716087 l 0.18027,-0.731109 q 0.015,-0.07511 0.015,-0.190289 0,-0.295448 -0.22033,-0.295448 h -0.025 q -0.43065,0 -0.7261,0.505767 l -0.035,0.06009 -0.16525,0.671019 q -0.16525,0.655995 -0.19029,0.706071 -0.0651,0.135206 -0.21533,0.135206 -0.0651,0 -0.10516,-0.03005 -0.0401,-0.03005 -0.0551,-0.06009 -0.015,-0.03005 -0.01,-0.05008 0,-0.0651 0.19029,-0.821247 0.1953,-0.77117 0.1953,-0.806223 0.015,-0.07511 0.015,-0.135205 0,-0.180274 -0.12519,-0.180274 -0.11017,0 -0.18528,0.140213 -0.0751,0.140213 -0.11518,0.305463 -0.0401,0.165251 -0.0601,0.180274 -0.01,0.01002 -0.0801,0.01002 h -0.0701 q -0.0301,-0.03005 -0.0301,-0.04507 z"
       style="fill:#0000ff;stroke-width:0.0050076" />
    <path
       id="use38"
       d="m 104.73537,38.186914 q 0,-0.140213 0.0901,-0.220335 0.0901,-0.08012 0.22034,-0.08012 0.11517,0.01002 0.2003,0.08513 0.0851,0.07511 0.0851,0.215327 0,0.150228 -0.0851,0.225342 -0.0851,0.07511 -0.21032,0.07511 -0.12519,0 -0.21032,-0.07511 -0.0851,-0.07511 -0.0901,-0.225342 z"
       style="fill:#0000ff;stroke-width:0.0050076" />
    <path
       id="use41"
       d="m 107.88444,40.897854 q 0,0 -0.0779,0 -0.0779,0 -0.13099,-0.05311 -0.0531,-0.05311 -0.0531,-0.138075 0,-0.123913 0.12038,-0.219503 0.12037,-0.09559 0.42838,-0.09559 0.25845,0 0.41776,0.113292 0.15932,0.113292 0.21243,0.269068 0.0177,0.04957 0.0177,0.109752 0,0.06019 0.004,0.407142 v 0.247826 q 0,0.169938 0.0177,0.233665 0.0177,0.06373 0.0743,0.06373 0.0531,0 0.0708,-0.05665 0.0177,-0.05665 0.0177,-0.187639 v -0.127454 h 0.14161 v 0.138075 q -0.004,0.141615 -0.0106,0.166397 -0.0319,0.106211 -0.12391,0.166398 -0.0921,0.06019 -0.19472,0.06373 -0.10267,0.0035 -0.1664,-0.06373 -0.0637,-0.06727 -0.085,-0.148696 v -0.01416 l -0.007,0.01062 q -0.007,0.01062 -0.0177,0.02124 -0.0106,0.01062 -0.0283,0.03186 -0.0177,0.02124 -0.0425,0.03894 -0.0248,0.0177 -0.0531,0.04248 -0.0283,0.02478 -0.0637,0.03894 -0.0354,0.01416 -0.0779,0.02832 -0.0425,0.01416 -0.0921,0.02124 -0.0496,0.0071 -0.10975,0.01062 -0.21242,0 -0.38236,-0.109751 -0.16994,-0.109752 -0.16994,-0.308013 0,-0.07435 0.0248,-0.141614 0.0248,-0.06727 0.0956,-0.145156 0.0708,-0.07789 0.16993,-0.130993 0.0991,-0.05311 0.27615,-0.09913 0.17702,-0.04602 0.38944,-0.0531 h 0.0496 v -0.07789 q 0,-0.120373 -0.0212,-0.177019 -0.0779,-0.251366 -0.34342,-0.251366 -0.0637,0 -0.12037,0.0035 -0.0567,0.0035 -0.0885,0.01416 -0.0319,0.01062 -0.0283,0.01062 0.0779,0.05311 0.0779,0.155776 0,0.08851 -0.0566,0.138075 z m -0.0389,0.704534 q 0,0.109751 0.085,0.19472 0.085,0.08497 0.20888,0.08851 0.13453,0 0.2372,-0.08143 0.10267,-0.08143 0.13808,-0.212422 0.007,-0.02478 0.0106,-0.233665 0,-0.205341 -0.004,-0.205341 -0.0283,0 -0.0743,0.0035 -0.046,0.0035 -0.15932,0.03186 -0.11329,0.02832 -0.20534,0.07081 -0.0921,0.04248 -0.16286,0.130994 -0.0708,0.08851 -0.0743,0.212422 z"
       style="fill:#0000ff;stroke-width:0.00354037" />
    <path
       id="use42"
       d="m 110.52555,41.772326 q -0.19826,0.240745 -0.44963,0.240745 h -0.0248 q -0.44254,0 -0.50981,-0.350497 -0.004,-0.02478 -0.007,-0.485031 -0.004,-0.3859 -0.004,-0.431925 0,-0.04603 -0.0212,-0.07435 -0.0354,-0.05665 -0.21243,-0.05665 h -0.0389 v -0.08143 q 0,-0.08143 0.007,-0.08143 l 0.0389,-0.0035 q 0.0354,-0.0035 0.10267,-0.0071 0.0673,-0.0035 0.13454,-0.0071 0.0602,-0.0035 0.13099,-0.0071 0.0708,-0.0035 0.10621,-0.01062 0.0354,-0.0071 0.0425,-0.0035 h 0.0106 v 0.640807 q 0.004,0.651429 0.0106,0.697453 0.0106,0.05311 0.0496,0.08497 0.0708,0.04957 0.21242,0.04957 0.0921,0 0.1664,-0.03186 0.0743,-0.03186 0.11329,-0.08143 0.0389,-0.04957 0.0708,-0.113292 0.0319,-0.06373 0.0425,-0.106211 0.0106,-0.04248 0.0142,-0.08497 0,-0.0035 0,-0.06019 0,-0.05664 0.004,-0.141614 0.004,-0.08497 0,-0.166398 V 40.86245 q 0,-0.162857 -0.0354,-0.201801 -0.0354,-0.03894 -0.17702,-0.04602 h -0.0637 v -0.162857 q 0.007,0 0.26907,-0.0177 0.26199,-0.0177 0.27969,-0.02124 h 0.0248 v 0.630186 q 0,0.637267 0.004,0.647888 0.0106,0.07081 0.0496,0.09205 0.0389,0.02124 0.15931,0.03186 h 0.0637 v 0.162857 q -0.007,0 -0.26553,0.0177 -0.25844,0.0177 -0.27261,0.02124 h -0.0248 z"
       style="fill:#0000ff;stroke-width:0.00354037" />
    <path
       id="use43"
       d="m 112.18245,40.85891 q 0,-0.141615 -0.0956,-0.244285 -0.0956,-0.102671 -0.27615,-0.102671 -0.12745,0 -0.2195,0.04603 -0.10621,0.06727 -0.10621,0.184099 -0.004,0.0177 0,0.04603 0.004,0.02832 0.0566,0.08497 0.0531,0.05664 0.15224,0.08851 0.0637,0.0177 0.15577,0.03186 0.0921,0.01416 0.15578,0.03186 0.0637,0.0177 0.11329,0.04603 0.0602,0.02832 0.11683,0.07081 0.0566,0.04248 0.1133,0.145155 0.0566,0.102671 0.0602,0.219503 0,0.219503 -0.13453,0.361118 -0.13454,0.141614 -0.43547,0.145155 h -0.0283 q -0.1841,0 -0.33988,-0.127454 l -0.0283,0.02478 -0.0319,0.03186 q -0.0212,0.02124 -0.0425,0.03894 l -0.0389,0.0354 h -0.0283 -0.0142 q -0.0106,0 -0.0319,-0.02124 v -0.27969 -0.205342 q 0,-0.07435 0.007,-0.08851 0.007,-0.01416 0.0354,-0.0177 h 0.0319 q 0.0425,0 0.0566,0.01416 0.0142,0.01416 0.0177,0.04248 0.004,0.02832 0.0248,0.09559 0.0212,0.06727 0.0673,0.148696 0.12391,0.180558 0.34341,0.180558 0.34342,0 0.34342,-0.276148 0,-0.102671 -0.0637,-0.166398 -0.0708,-0.08497 -0.29385,-0.127453 -0.22304,-0.04248 -0.29385,-0.08143 -0.12745,-0.06019 -0.2018,-0.162857 -0.0744,-0.10267 -0.0744,-0.219503 0,-0.138074 0.0602,-0.233664 0.0602,-0.09559 0.15223,-0.141615 0.0921,-0.04603 0.17702,-0.06373 0.085,-0.0177 0.15578,-0.0177 h 0.0389 q 0.14162,0 0.24783,0.05311 l 0.0531,0.02832 0.0319,-0.02478 q 0.0354,-0.03186 0.0779,-0.06019 h 0.0283 0.0142 q 0.0106,0 0.0319,0.02124 v 0.467329 l -0.0212,0.02124 h -0.0991 q -0.0212,-0.02124 -0.0212,-0.04248 z"
       style="fill:#0000ff;stroke-width:0.00354037" />
    <path
       id="use46"
       d="m 113.08455,37.475835 0.02,-0.005 q 0.025,0 0.0501,0 h 0.0601 l 0.14022,0.120182 q 0.47071,0.425646 0.68604,1.061612 0.21532,0.635965 0.21532,1.322006 0,0.340517 -0.0501,0.655996 -0.0501,0.315478 -0.11518,0.535813 -0.0651,0.220334 -0.18528,0.440669 -0.12018,0.220334 -0.19029,0.335509 -0.0701,0.115175 -0.20531,0.255387 -0.1352,0.140213 -0.16024,0.165251 -0.025,0.02504 -0.11518,0.09514 -0.015,0.01502 -0.02,0.02003 h -0.0601 q -0.0401,0 -0.0551,0 -0.015,0 -0.025,-0.01502 -0.01,-0.01502 -0.015,-0.04507 0.005,-0.005 0.0551,-0.0651 0.77618,-0.806224 0.77618,-2.37861 0,-1.572386 -0.77618,-2.37861 -0.0501,-0.06009 -0.0551,-0.0651 0,-0.04006 0.025,-0.05508 z"
       style="fill:#0000ff;stroke-width:0.0050076" />
    <path
       id="use47"
       d="m 115.54873,39.853445 q 0,-0.08497 0.0673,-0.148696 0.0673,-0.06373 0.15577,-0.06727 0.0637,0 0.10621,0.04248 0.0425,0.04248 0.046,0.106211 0,0.08143 -0.0708,0.148696 -0.0708,0.06727 -0.15578,0.07081 -0.0531,0 -0.0991,-0.0354 -0.046,-0.0354 -0.0496,-0.116832 z m -0.57708,1.108136 q 0,-0.02832 0.0319,-0.109752 0.0319,-0.08143 0.085,-0.180559 0.0531,-0.09913 0.15578,-0.180558 0.10267,-0.08143 0.21242,-0.07789 0.13807,0 0.23012,0.08143 0.0921,0.08143 0.0956,0.219503 0,0.06019 -0.0496,0.198261 -0.0496,0.138074 -0.14162,0.371738 -0.0921,0.233665 -0.14869,0.400062 -0.0177,0.07789 -0.0177,0.113292 0,0.08851 0.0602,0.08851 0.0319,0 0.0673,-0.01062 0.0354,-0.01062 0.0814,-0.04957 0.046,-0.03894 0.0956,-0.123913 0.0496,-0.08497 0.0885,-0.208882 0.0106,-0.04248 0.0177,-0.04956 0.007,-0.0071 0.0602,-0.0071 0.0708,0 0.0708,0.0354 0,0.02832 -0.0319,0.109752 -0.0319,0.08143 -0.0885,0.180558 -0.0567,0.09913 -0.15932,0.177019 -0.10267,0.07789 -0.2195,0.07789 -0.11329,0 -0.20888,-0.07435 -0.0956,-0.07435 -0.0991,-0.226583 0,-0.06019 0.0177,-0.113292 0.0177,-0.05311 0.15224,-0.403602 0.13453,-0.357578 0.15577,-0.428385 0.0212,-0.07081 0.0248,-0.138075 0,-0.08497 -0.0602,-0.08497 h -0.007 q -0.10621,0 -0.19472,0.116832 -0.0885,0.116832 -0.13454,0.297391 -0.004,0.0035 -0.007,0.01062 -0.004,0.0071 -0.004,0.01062 0,0.0035 -0.007,0.0071 -0.007,0.0035 -0.0106,0.0035 -0.004,0 -0.0142,0 -0.0106,0 -0.0283,0 h -0.0496 q -0.0212,-0.02124 -0.0212,-0.03186 z"
       style="fill:#0000ff;stroke-width:0.00354037" />
    <g
       id="path8">
      <path
         style="color:#000000;fill:#000000;-inkscape-stroke:none"
         d="m 48.468278,58.360542 v 2.825"
         id="path27" />
      <path
         style="color:#000000;fill:#000000;-inkscape-stroke:none"
         d="m 48.291016,58.361328 v 2.824219 h 0.353515 v -2.824219 z"
         id="path28" />
    </g>
    <g
       id="path9">
      <path
         style="color:#000000;fill:#000000;-inkscape-stroke:none"
         d="m 83.393279,58.360542 v 2.825"
         id="path25" />
      <path
         style="color:#000000;fill:#000000;-inkscape-stroke:none"
         d="m 83.216797,58.361328 v 2.824219 h 0.353515 v -2.824219 z"
         id="path26" />
    </g>
    <g
       stroke="currentColor"
       fill="currentColor"
       stroke-width="0"
       transform="matrix(0.00499952,0,0,-0.00499952,53.480951,41.480547)"
       id="g11-4">
      <g
         data-mml-node="math"
         id="g10-5">
        <g
           data-mml-node="mi"
           id="g1-0">
          <g
             id="use1-3">
            <path
               style="color:#000000;fill:#000000;-inkscape-stroke:none"
               d="m 55,454 q 0,49 20,92 20,43 52,71 32,28 70,48 38,20 75,30 37,10 65,9 h 15 q 44,0 52,-1 123,-16 192,-88 69,-72 70,-161 0,-62 -31,-124 Q 604,268 559,200 514,132 499,83 v -3 h 44 q 46,1 57,3 11,2 17,10 5,9 12,42 7,33 7,37 l 1,5 h 40 v -2 L 660,89 Q 645,3 644,2 V 0 h -92 -64 q -27,0 -32,3 -5,3 -5,17 0,69 48,215 48,146 49,220 0,57 -18,100 -18,43 -47,67 -29,24 -59,34 -30,10 -63,12 -29,0 -58,-10 -29,-10 -60,-32 -31,-22 -50,-66 -19,-44 -19,-104 0,-76 48,-223 Q 270,86 270,20 270,7 263,0 H 77 V 2 Q 76,3 61,89 l -17,86 v 2 h 40 l 1,-5 q 0,-1 3,-17 3,-16 8,-36 5,-20 8,-26 5,-7 16,-9 11,-2 58,-4 h 44 v 3 q -16,49 -60,116 -44,67 -75,130 -31,63 -32,125 z"
               id="path10" />
            <path
               style="color:#000000;fill:#000000;-inkscape-stroke:none"
               d="m 55,454 c 0,32.66663 6.66668,63.33336 20,92 13.33332,28.66664 30.66669,52.33335 52,71 21.33331,18.66665 44.66669,34.66668 70,48 25.33331,13.33332 50.33336,23.33334 75,30 24.66664,6.66666 46.33335,9.66667 65,9 h 15 c 29.3333,0 46.66667,-0.33333 52,-1 81.99992,-10.66666 146.00005,-40.00005 192,-88 45.99995,-47.99995 69.33333,-101.66673 70,-161 0,-41.33329 -10.33335,-82.66671 -31,-124 C 614.33335,288.66671 588.99997,245.33329 559,200 529.00003,154.66671 508.99999,115.66663 499,83 v -3 h 44 c 30.66664,0.666666 49.66667,1.666668 57,3 7.33333,1.333332 13,4.666672 17,10 3.33333,5.999994 7.33334,20.00002 12,42 4.66666,21.99998 7,34.33334 7,37 l 1,5 h 40 v -2 L 660,89 C 650.00001,31.666724 644.66667,2.666666 644,2 V 0 h -92 -64 c -17.99998,0 -28.66667,1.000002 -32,3 -3.33333,1.999998 -5,7.666676 -5,17 0,45.999954 16.00003,117.66676 48,215 31.99997,97.33324 48.33333,170.66672 49,220 0,37.99996 -6.00001,71.33336 -18,100 -11.99999,28.66664 -27.66669,51.00002 -47,67 -19.33331,15.99998 -39.00002,27.33334 -59,34 -19.99998,6.66666 -41.00002,10.66667 -63,12 -19.33331,0 -38.66669,-3.33334 -58,-10 -19.33331,-6.66666 -39.33335,-17.33335 -60,-32 -20.66665,-14.66665 -37.33335,-36.6667 -50,-66 -12.66665,-29.3333 -19,-64.00004 -19,-104 0,-50.66662 16.00003,-125.0001 48,-223 31.99997,-97.9999 48,-169.000044 48,-213 0,-8.666658 -2.33334,-15.333338 -7,-20 H 77 V 2 C 76.333334,2.666666 70.99999,31.666724 61,89 l -17,86 v 2 h 40 l 1,-5 c 0,-0.66667 1.000002,-6.33334 3,-17 1.999998,-10.66666 4.66667,-22.66668 8,-36 3.33333,-13.33332 6,-22.000004 8,-26 3.33333,-4.666662 8.66667,-7.666668 16,-9 7.33333,-1.333332 26.6667,-2.666668 58,-4 h 44 v 3 c -10.66666,32.66663 -30.6667,71.33338 -60,116 -29.3333,44.66662 -54.33335,88.00004 -75,130 -20.666646,41.99996 -31.333334,83.66671 -32,125 z"
               id="path11" />
          </g>
        </g>
        <g
           data-mml-node="mo"
           transform="translate(999.8)"
           id="g2-6">
          <g
             id="use2-1">
            <path
               style="color:#000000;fill:#000000;-inkscape-stroke:none"
               d="m 56,347 q 0,13 14,20 h 637 q 15,-8 15,-20 0,-11 -14,-19 L 390,327 H 72 q -16,5 -16,20 z m 0,-194 q 0,15 16,20 h 636 q 14,-10 14,-20 0,-13 -15,-20 H 70 q -14,7 -14,20 z"
               id="path12" />
            <path
               style="color:#000000;fill:#000000;-inkscape-stroke:none"
               d="m 56,347 c 0,8.66666 4.666676,15.33334 14,20 h 637 c 9.99999,-5.33333 15,-12.00001 15,-20 0,-7.33333 -4.66668,-13.66667 -14,-19 L 390,327 H 72 c -10.666656,3.33333 -16,10.00001 -16,20 z m 0,-194 c 0,9.99999 5.333344,16.66667 16,20 h 636 c 9.33332,-6.66666 14,-13.33334 14,-20 0,-8.66666 -5.00001,-15.33334 -15,-20 H 70 c -9.333324,4.66666 -14,11.33334 -14,20 z"
               id="path13" />
          </g>
        </g>
        <g
           data-mml-node="munder"
           transform="translate(2055.6)"
           id="g5-0">
          <g
             data-mml-node="mo"
             id="g3-6">
            <g
               id="use3-3">
              <path
                 style="color:#000000;fill:#000000;-inkscape-stroke:none"
                 d="m 220,812 q 0,1 -2,7 -2,6 -4,10 -2,4 -6,11 -4,7 -9,13 -5,6 -14,13 -9,7 -19,12 -10,5 -26,9 -16,4 -33,6 -17,2 -41,3 H 56 v 54 h 1165 v -54 h -10 q -131,0 -153,-84 V -311 q 18,-85 153,-85 h 10 v -54 H 725 v 54 h 10 q 129,0 153,82 1,2 1,3 V 896 H 388 V 292 l 1,-603 q 16,-85 153,-85 h 10 v -54 H 56 v 54 h 10 q 129,0 153,82 1,2 1,3 z"
                 id="path14" />
              <path
                 style="color:#000000;fill:#000000;-inkscape-stroke:none"
                 d="m 220,812 c 0,0.66667 -0.66667,3 -2,7 -1.33333,4 -2.66667,7.33334 -4,10 -1.33333,2.66666 -3.33334,6.33334 -6,11 -2.66666,4.66666 -5.66667,9 -9,13 -3.33333,4 -8.00001,8.33334 -14,13 -5.99999,4.66666 -12.33334,8.66667 -19,12 -6.66666,3.33333 -15.33334,6.33334 -26,9 -10.66666,2.66666 -21.66668,4.66667 -33,6 -11.333322,1.33333 -25.000016,2.33333 -41,3 H 56 v 54 h 1165 v -54 h -10 c -87.3332,0 -138.3333,-28.00006 -153,-84 V -311 c 12,-56.66661 63.0001,-85 153,-85 h 10 v -54 H 725 v 54 h 10 c 85.99991,0 137.00002,27.33339 153,82 0.66667,1.33333 1,2.33333 1,3 V 896 H 388 V 292 l 1,-603 c 10.66666,-56.66661 61.66676,-85 153,-85 h 10 v -54 H 56 v 54 h 10 c 85.99991,0 137.00002,27.33339 153,82 0.66667,1.33333 1,2.33333 1,3 z"
                 id="path15" />
            </g>
          </g>
          <g
             data-mml-node="mi"
             transform="matrix(0.707,0,0,0.707,517,-1084.4)"
             id="g4-2">
            <g
               id="use4-0">
              <path
                 style="color:#000000;fill:#000000;-inkscape-stroke:none"
                 d="m 184,600 q 0,24 19,42 19,18 44,19 18,0 30,-12 12,-12 13,-30 0,-23 -20,-42 -20,-19 -44,-20 -15,0 -28,10 -13,10 -14,33 z M 21,287 q 0,8 9,31 9,23 24,51 15,28 44,51 29,23 60,22 39,0 65,-23 26,-23 27,-62 0,-17 -14,-56 -14,-39 -40,-105 -26,-66 -42,-113 -5,-22 -5,-32 0,-25 17,-25 9,0 19,3 10,3 23,14 13,11 27,35 14,24 25,59 3,12 5,14 2,2 17,2 20,0 20,-10 0,-8 -9,-31 -9,-23 -25,-51 -16,-28 -45,-50 -29,-22 -62,-22 -32,0 -59,21 -27,21 -28,64 0,17 5,32 5,15 43,114 38,101 44,121 6,20 7,39 0,24 -17,24 h -2 q -30,0 -55,-33 -25,-33 -38,-84 -1,-1 -2,-3 -1,-2 -1,-3 0,-1 -2,-2 -2,-1 -3,-1 -1,0 -4,0 -3,0 -8,0 H 27 q -6,6 -6,9 z"
                 id="path16" />
              <path
                 style="color:#000000;fill:#000000;-inkscape-stroke:none"
                 d="m 184,600 c 0,15.99998 6.33335,30.00001 19,42 12.66665,11.99999 27.33335,18.33333 44,19 11.99999,0 22.00001,-4.00001 30,-12 7.99999,-7.99999 12.33333,-18.00001 13,-30 0,-15.33332 -6.66668,-29.33335 -20,-42 -13.33332,-12.66665 -28.00002,-19.33333 -44,-20 -9.99999,0 -19.33334,3.33334 -28,10 -8.66666,6.66666 -13.33333,17.66668 -14,33 z M 21,287 c 0,5.33333 3.000006,15.66668 9,31 5.999994,15.33332 14.00001,32.33335 24,51 9.99999,18.66665 24.666686,35.66668 44,51 19.33331,15.33332 39.33335,22.66667 60,22 25.99997,0 47.66668,-7.66668 65,-23 17.33332,-15.33332 26.33333,-36.00003 27,-62 0,-11.33332 -4.66668,-30.00003 -14,-56 -9.33332,-25.99997 -22.66668,-61.00004 -40,-105 -17.33332,-43.99996 -31.33334,-81.6667 -42,-113 -3.33333,-14.666652 -5,-25.33334 -5,-32 0,-16.66665 5.66668,-25 17,-25 5.99999,0 12.33334,1.000002 19,3 6.66666,1.999998 14.33334,6.666674 23,14 8.66666,7.333326 17.66668,19.000016 27,35 9.33332,15.999984 17.66667,35.66669 25,59 2,7.99999 3.66667,12.66667 5,14 1.33333,1.33333 7.00001,2 17,2 13.33332,0 20,-3.33334 20,-10 0,-5.33333 -3.00001,-15.66668 -9,-31 C 287.00001,96.666682 278.66666,79.666648 268,61 257.33334,42.333352 242.33331,25.666652 223,11 203.66669,-3.666652 182.99998,-11 161,-11 c -21.33331,0 -41.00002,7.000014 -59,21 -17.999982,13.999986 -27.333334,35.333362 -28,64 0,11.333322 1.66667,22.00001 5,32 3.33333,9.99999 17.666692,48.00007 43,114 25.33331,67.33327 40,107.66668 44,121 4,13.33332 6.33333,26.33335 7,39 0,15.99998 -5.66668,24 -17,24 h -2 c -19.99998,0 -38.33335,-11.00002 -55,-33 -16.66665,-21.99998 -29.333342,-50.00003 -38,-84 -0.666666,-0.66667 -1.333334,-1.66667 -2,-3 -0.666666,-1.33333 -1,-2.33333 -1,-3 0,-0.66667 -0.666668,-1.33333 -2,-2 -1.333332,-0.66667 -2.333334,-1 -3,-1 H 49 41 27 c -3.999996,4 -6,7 -6,9 z"
                 id="path17" />
            </g>
          </g>
        </g>
        <g
           data-mml-node="mi"
           transform="translate(3500.2)"
           id="g6-6">
          <g
             id="use5-1">
            <path
               style="color:#000000;fill:#000000;-inkscape-stroke:none"
               d="m 366,683 q 1,0 72,5 71,5 73,6 12,0 12,-8 0,-7 -73,-302 -73,-295 -75,-301 -2,-6 -1,-15 0,-42 28,-42 9,1 20,9 21,20 41,96 6,20 10,21 2,1 10,1 h 4 4 q 15,0 15,-8 0,-5 -3,-16 Q 490,79 473,48 456,17 445,8 434,-1 417,-8 q -8,-2 -24,-2 -34,0 -57,15 -23,15 -30,31 l -6,15 q -1,1 -4,-1 -2,-2 -4,-4 -59,-56 -120,-56 -55,0 -97,40 -42,40 -42,127 0,48 20,98 20,50 48,86 47,57 94,79 47,22 85,22 56,0 84,-42 5,-6 5,-4 1,4 27,109 26,105 28,111 0,13 -7,16 -7,3 -39,5 h -21 q -6,6 -6,8 0,2 2,19 5,19 13,19 z M 352,326 q -23,79 -75,79 -35,0 -67,-31 -32,-31 -50,-81 -29,-79 -41,-164 0,-3 0,-11 0,-8 -1,-12 0,-45 18,-62 18,-17 43,-18 54,0 111,72 l 8,11 z"
               id="path18" />
            <path
               style="color:#000000;fill:#000000;-inkscape-stroke:none"
               d="m 366,683 c 0.66667,0 24.66671,1.66667 72,5 47.33329,3.33333 71.66667,5.33333 73,6 7.99999,0 12,-2.66667 12,-8 0,-4.66666 -24.33338,-105.33353 -73,-302 C 401.33338,187.33353 376.33333,86.999996 375,83 c -1.33333,-3.999996 -1.66667,-9.000006 -1,-15 0,-27.999972 9.33335,-42 28,-42 5.99999,0.666666 12.66667,3.666672 20,9 13.99999,13.33332 27.66668,45.333384 41,96 4,13.33332 7.33334,20.33333 10,21 1.33333,0.66667 4.66667,1 10,1 h 4 4 c 9.99999,0 15,-2.66667 15,-8 0,-3.33333 -1,-8.66667 -3,-16 C 494.33334,95.6667 484.33332,68.666646 473,48 461.66668,27.333354 452.33333,13.999994 445,8 437.66667,2.000006 428.33332,-3.333338 417,-8 c -5.33333,-1.333332 -13.33334,-2 -24,-2 -22.66664,0 -41.66668,5.00001 -57,15 -15.33332,9.99999 -25.33334,20.333344 -30,31 l -6,15 c -0.66667,0.666666 -2,0.333332 -4,-1 l -4,-4 C 252.66671,8.666704 212.66663,-10 172,-10 135.33337,-10 102.99997,3.33336 75,30 47.000028,56.66664 33,99.000058 33,157 c 0,31.99997 6.66668,64.6667 20,98 13.33332,33.3333 29.333352,62.00002 48,86 31.3333,37.99996 62.6667,64.33335 94,79 31.3333,14.66665 59.66669,22 85,22 37.3333,0 65.33335,-14.00003 84,-42 3.33333,-4 5,-5.33333 5,-4 0.66667,2.66666 9.66668,39.00007 27,109 17.33332,69.99993 26.66667,107 28,111 0,8.66666 -2.33334,14 -7,16 -4.66666,2 -17.66669,3.66667 -39,5 h -21 c -4,4 -6,6.66667 -6,8 0,1.33333 0.66667,7.66668 2,19 3.33333,12.66665 7.66667,19 13,19 z M 352,326 c -15.33332,52.66661 -40.33337,79 -75,79 -23.33331,0 -45.66669,-10.33335 -67,-31 -21.33331,-20.66665 -38.00001,-47.6667 -50,-81 -19.33331,-52.66661 -33.00001,-107.33339 -41,-164 v -11 c 0,-5.33333 -0.33333,-9.33334 -1,-12 0,-29.99997 6.00001,-50.666678 18,-62 11.99999,-11.333322 26.33335,-17.333334 43,-18 35.99996,0 73.00004,24.000048 111,72 l 8,11 z"
               id="path19" />
          </g>
        </g>
        <g
           data-mml-node="msub"
           transform="translate(4020.2)"
           id="g9-5">
          <g
             data-mml-node="mi"
             id="g7-5">
            <g
               id="use6-4">
              <path
                 style="color:#000000;fill:#000000;-inkscape-stroke:none"
                 d="m 52,289 q 7,42 54,97 47,55 116,56 35,0 64,-18 29,-18 43,-45 42,63 101,63 37,0 64,-22 27,-22 28,-59 0,-29 -14,-47 -14,-18 -27,-22 -13,-4 -23,-4 -19,0 -31,11 -12,11 -12,29 0,46 50,63 -11,13 -40,13 -13,0 -19,-2 -38,-16 -56,-66 -60,-221 -60,-258 0,-28 16,-40 16,-12 35,-12 37,0 73,33 36,33 49,81 3,10 6,11 3,1 16,2 h 4 q 15,0 15,-8 0,-1 -2,-11 Q 486,77 440,33 394,-11 333,-11 263,-11 227,52 186,-10 133,-10 h -6 q -49,0 -70,26 -21,26 -22,55 0,32 19,52 19,20 45,20 43,0 43,-42 Q 142,81 130,66 118,51 107,46 96,41 94,41 l -3,-1 q 0,-1 6,-4 6,-3 16,-7 10,-4 19,-3 36,0 62,45 9,16 23,68 14,52 28,108 14,56 16,66 5,27 5,39 0,28 -15,40 -15,12 -34,12 -40,0 -75,-32 -35,-32 -49,-82 -2,-9 -5,-10 -3,-1 -16,-2 H 58 q -6,6 -6,11 z"
                 id="path20" />
              <path
                 style="color:#000000;fill:#000000;-inkscape-stroke:none"
                 d="m 52,289 c 4.666662,27.99997 22.666698,60.33337 54,97 31.3333,36.66663 70.00005,55.33333 116,56 23.33331,0 44.66669,-6.00001 64,-18 19.33331,-11.99999 33.66668,-27.00002 43,-45 27.99997,41.99996 61.66671,63 101,63 24.66664,0 46.00002,-7.33335 64,-22 17.99998,-14.66665 27.33333,-34.33336 28,-59 0,-19.33331 -4.66668,-35.00001 -14,-47 -9.33332,-11.99999 -18.33334,-19.33334 -27,-22 -8.66666,-2.66666 -16.33334,-4 -23,-4 -12.66665,0 -23.00001,3.66667 -31,11 -7.99999,7.33333 -12,17.00001 -12,29 0,30.66664 16.6667,51.66668 50,63 -7.33333,8.66666 -20.66669,13 -40,13 -8.66666,0 -15,-0.66667 -19,-2 -25.33331,-10.66666 -44.00001,-32.6667 -56,-66 -39.99996,-147.33319 -60,-233.33336 -60,-258 0,-18.666648 5.33334,-32.000008 16,-40 10.66666,-7.999992 22.33335,-12 35,-12 24.66664,0 49.00002,11.000022 73,33 23.99998,21.999978 40.33334,49.00003 49,81 2,6.66666 4,10.33333 6,11 2,0.66667 7.33334,1.33333 16,2 h 4 c 9.99999,0 15,-2.66667 15,-8 0,-0.66667 -0.66667,-4.33334 -2,-11 C 491.33334,96.000038 470.66664,62.333304 440,33 409.33336,3.666696 373.66663,-11 333,-11 286.33338,-11 250.99998,10.000042 227,52 199.66669,10.666708 168.3333,-10 133,-10 h -6 C 94.333366,-10 70.999986,-1.333316 57,16 43.000014,33.333316 35.666666,51.666686 35,71 c 0,21.333312 6.333346,38.66668 19,52 12.666654,13.33332 27.666684,20 45,20 28.66664,0 43,-14.00003 43,-42 C 142,87.66668 137.99999,75.99999 130,66 122.00001,56.00001 114.33333,49.33333 107,46 99.666674,42.66667 95.333332,41 94,41 l -3,-1 c 0,-0.666666 2.000004,-2.000002 6,-4 4,-1.999998 9.33334,-4.333336 16,-7 6.66666,-2.666664 13.00001,-3.666666 19,-3 23.99998,0 44.66668,15.00003 62,45 5.99999,10.666656 13.66668,33.33337 23,68 9.33332,34.66663 18.66668,70.6667 28,108 9.33332,37.3333 14.66667,59.33334 16,66 3.33333,17.99998 5,31.00001 5,39 0,18.66665 -5.00001,32.00001 -15,40 -9.99999,7.99999 -21.33335,12 -34,12 -26.66664,0 -51.66669,-10.66669 -75,-32 -23.33331,-21.33331 -39.66668,-48.6667 -49,-82 -1.333332,-5.99999 -3.000002,-9.33333 -5,-10 -1.999998,-0.66667 -7.333342,-1.33333 -16,-2 H 58 c -3.999996,4 -6,7.66667 -6,11 z"
                 id="path21" />
            </g>
          </g>
          <g
             data-mml-node="mi"
             transform="matrix(0.707,0,0,0.707,605,-150)"
             id="g8-7">
            <g
               id="use7-6">
              <path
                 style="color:#000000;fill:#000000;-inkscape-stroke:none"
                 d="m 184,600 q 0,24 19,42 19,18 44,19 18,0 30,-12 12,-12 13,-30 0,-23 -20,-42 -20,-19 -44,-20 -15,0 -28,10 -13,10 -14,33 z M 21,287 q 0,8 9,31 9,23 24,51 15,28 44,51 29,23 60,22 39,0 65,-23 26,-23 27,-62 0,-17 -14,-56 -14,-39 -40,-105 -26,-66 -42,-113 -5,-22 -5,-32 0,-25 17,-25 9,0 19,3 10,3 23,14 13,11 27,35 14,24 25,59 3,12 5,14 2,2 17,2 20,0 20,-10 0,-8 -9,-31 -9,-23 -25,-51 -16,-28 -45,-50 -29,-22 -62,-22 -32,0 -59,21 -27,21 -28,64 0,17 5,32 5,15 43,114 38,101 44,121 6,20 7,39 0,24 -17,24 h -2 q -30,0 -55,-33 -25,-33 -38,-84 -1,-1 -2,-3 -1,-2 -1,-3 0,-1 -2,-2 -2,-1 -3,-1 -1,0 -4,0 -3,0 -8,0 H 27 q -6,6 -6,9 z"
                 id="path22" />
              <path
                 style="color:#000000;fill:#000000;-inkscape-stroke:none"
                 d="m 184,600 c 0,15.99998 6.33335,30.00001 19,42 12.66665,11.99999 27.33335,18.33333 44,19 11.99999,0 22.00001,-4.00001 30,-12 7.99999,-7.99999 12.33333,-18.00001 13,-30 0,-15.33332 -6.66668,-29.33335 -20,-42 -13.33332,-12.66665 -28.00002,-19.33333 -44,-20 -9.99999,0 -19.33334,3.33334 -28,10 -8.66666,6.66666 -13.33333,17.66668 -14,33 z M 21,287 c 0,5.33333 3.000006,15.66668 9,31 5.999994,15.33332 14.00001,32.33335 24,51 9.99999,18.66665 24.666686,35.66668 44,51 19.33331,15.33332 39.33335,22.66667 60,22 25.99997,0 47.66668,-7.66668 65,-23 17.33332,-15.33332 26.33333,-36.00003 27,-62 0,-11.33332 -4.66668,-30.00003 -14,-56 -9.33332,-25.99997 -22.66668,-61.00004 -40,-105 -17.33332,-43.99996 -31.33334,-81.6667 -42,-113 -3.33333,-14.666652 -5,-25.33334 -5,-32 0,-16.66665 5.66668,-25 17,-25 5.99999,0 12.33334,1.000002 19,3 6.66666,1.999998 14.33334,6.666674 23,14 8.66666,7.333326 17.66668,19.000016 27,35 9.33332,15.999984 17.66667,35.66669 25,59 2,7.99999 3.66667,12.66667 5,14 1.33333,1.33333 7.00001,2 17,2 13.33332,0 20,-3.33334 20,-10 0,-5.33333 -3.00001,-15.66668 -9,-31 C 287.00001,96.666682 278.66666,79.666648 268,61 257.33334,42.333352 242.33331,25.666652 223,11 203.66669,-3.666652 182.99998,-11 161,-11 c -21.33331,0 -41.00002,7.000014 -59,21 -17.999982,13.999986 -27.333334,35.333362 -28,64 0,11.333322 1.66667,22.00001 5,32 3.33333,9.99999 17.666692,48.00007 43,114 25.33331,67.33327 40,107.66668 44,121 4,13.33332 6.33333,26.33335 7,39 0,15.99998 -5.66668,24 -17,24 h -2 c -19.99998,0 -38.33335,-11.00002 -55,-33 -16.66665,-21.99998 -29.333342,-50.00003 -38,-84 -0.666666,-0.66667 -1.333334,-1.66667 -2,-3 -0.666666,-1.33333 -1,-2.33333 -1,-3 0,-0.66667 -0.666668,-1.33333 -2,-2 -1.333332,-0.66667 -2.333334,-1 -3,-1 H 49 41 27 c -3.999996,4 -6,7 -6,9 z"
                 id="path24" />
            </g>
          </g>
        </g>
      </g>
    </g>
  </g>
</svg>
