<?xml version="1.0" encoding="UTF-8" standalone="no"?>
<svg
   version="1.1"
   width="300"
   height="300"
   id="svg70"
   sodipodi:docname="Modifizierte_Frequenz_Euler_explizit.svg"
   viewBox="0 0 1000 1000"
   inkscape:version="1.3.2 (091e20ef0f, 2023-11-25, custom)"
   xmlns:inkscape="http://www.inkscape.org/namespaces/inkscape"
   xmlns:sodipodi="http://sodipodi.sourceforge.net/DTD/sodipodi-0.dtd"
   xmlns:xlink="http://www.w3.org/1999/xlink"
   xmlns="http://www.w3.org/2000/svg"
   xmlns:svg="http://www.w3.org/2000/svg">
  <sodipodi:namedview
     id="namedview70"
     pagecolor="#ffffff"
     bordercolor="#000000"
     borderopacity="0.25"
     inkscape:showpageshadow="2"
     inkscape:pageopacity="0.0"
     inkscape:pagecheckerboard="0"
     inkscape:deskcolor="#d1d1d1"
     inkscape:zoom="1.8101934"
     inkscape:cx="87.00728"
     inkscape:cy="151.64126"
     inkscape:window-width="1920"
     inkscape:window-height="1005"
     inkscape:window-x="0"
     inkscape:window-y="0"
     inkscape:window-maximized="1"
     inkscape:current-layer="svg70" />
  <defs
     id="defs1">
    <path
       id="MJX-15-TEX-N-211C"
       d="M27 496Q31 569 102 627T234 685Q236 685 241 685T251 686Q287 686 318 672T367 638T399 598T418 564L423 550Q424 554 434 567T463 601T505 639T561 671T626 685Q672 685 688 659T710 572Q713 533 721 523T766 513Q781 513 787 514T794 516Q796 512 798 509T801 504T802 501T787 493Q702 461 624 401L607 389Q655 383 688 358L697 352V342Q699 330 699 297Q704 209 710 173T734 103Q751 69 765 69Q769 69 806 83L824 90V74Q823 73 759 24T693 -26Q692 -26 660 32L628 90L629 111Q631 159 631 177Q631 278 614 300Q584 340 523 340Q500 340 467 333T431 325Q429 325 429 322Q428 321 426 308T420 275T410 230T392 178T366 125L358 112L342 99Q306 70 269 38T213 -10T193 -26Q192 -26 163 0T116 26Q82 26 50 -8L42 -16L35 -8L27 0L35 10Q43 21 58 38T104 80T158 106Q179 106 218 65L235 48Q238 48 255 60T295 99T329 158Q352 231 352 359Q352 555 242 614Q210 628 187 628Q140 628 116 600T91 548Q91 522 138 464T185 382V376Q185 345 158 313T103 263L76 246Q74 244 64 253L54 260L65 267Q91 285 100 302Q111 318 111 337Q111 355 69 410T27 496ZM562 628Q504 628 443 507L435 491L436 479Q437 471 437 446Q437 396 432 351L529 389L602 426Q673 462 673 463H672Q644 470 637 483T622 553Q608 628 562 628Z" />
    <path
       id="MJX-15-TEX-N-2C"
       d="M78 35T78 60T94 103T137 121Q165 121 187 96T210 8Q210 -27 201 -60T180 -117T154 -158T130 -185T117 -194Q113 -194 104 -185T95 -172Q95 -168 106 -156T131 -126T157 -76T173 -3V9L172 8Q170 7 167 6T161 3T152 1T140 0Q113 0 96 17Z" />
    <path
       id="MJX-15-TEX-N-A0"
       d="" />
    <path
       id="MJX-15-TEX-N-2111"
       d="M190 601Q161 601 137 587T97 553T71 512T55 477T48 463Q44 465 39 468L30 473L35 488Q73 594 106 636T199 685Q200 686 211 686Q250 686 326 652T417 617Q435 617 455 626T497 652T522 670Q532 660 532 654Q469 591 390 550L378 543L343 556Q223 601 190 601ZM378 208Q378 249 369 318T360 424Q360 430 360 439T361 451L362 462Q416 526 482 571L495 580L503 577L511 575L499 562Q442 502 442 465Q442 436 452 368T462 246Q462 169 442 128T385 56Q292 -26 195 -26Q150 -26 104 14L96 21L43 -16Q43 -15 43 -14T41 -10T38 0L48 13Q76 50 123 97L150 125Q154 131 159 131Q166 131 171 116T182 81T193 53Q199 43 216 33T261 22Q307 22 344 68Q378 113 378 208Z" />
    <path
       id="MJX-15-TEX-I-1D453"
       d="M118 -162Q120 -162 124 -164T135 -167T147 -168Q160 -168 171 -155T187 -126Q197 -99 221 27T267 267T289 382V385H242Q195 385 192 387Q188 390 188 397L195 425Q197 430 203 430T250 431Q298 431 298 432Q298 434 307 482T319 540Q356 705 465 705Q502 703 526 683T550 630Q550 594 529 578T487 561Q443 561 443 603Q443 622 454 636T478 657L487 662Q471 668 457 668Q445 668 434 658T419 630Q412 601 403 552T387 469T380 433Q380 431 435 431Q480 431 487 430T498 424Q499 420 496 407T491 391Q489 386 482 386T428 385H372L349 263Q301 15 282 -47Q255 -132 212 -173Q175 -205 139 -205Q107 -205 81 -186T55 -132Q55 -95 76 -78T118 -61Q162 -61 162 -103Q162 -122 151 -136T127 -157L118 -162Z" />
    <path
       id="MJX-15-TEX-I-210E"
       d="M137 683Q138 683 209 688T282 694Q294 694 294 685Q294 674 258 534Q220 386 220 383Q220 381 227 388Q288 442 357 442Q411 442 444 415T478 336Q478 285 440 178T402 50Q403 36 407 31T422 26Q450 26 474 56T513 138Q516 149 519 151T535 153Q555 153 555 145Q555 144 551 130Q535 71 500 33Q466 -10 419 -10H414Q367 -10 346 17T325 74Q325 90 361 192T398 345Q398 404 354 404H349Q266 404 205 306L198 293L164 158Q132 28 127 16Q114 -11 83 -11Q69 -11 59 -2T48 16Q48 30 121 320L195 616Q195 629 188 632T149 637H128Q122 643 122 645T124 664Q129 683 137 683Z" />
    <path
       id="MJX-15-TEX-I-1D461"
       d="M26 385Q19 392 19 395Q19 399 22 411T27 425Q29 430 36 430T87 431H140L159 511Q162 522 166 540T173 566T179 586T187 603T197 615T211 624T229 626Q247 625 254 615T261 596Q261 589 252 549T232 470L222 433Q222 431 272 431H323Q330 424 330 420Q330 398 317 385H210L174 240Q135 80 135 68Q135 26 162 26Q197 26 230 60T283 144Q285 150 288 151T303 153H307Q322 153 322 145Q322 142 319 133Q314 117 301 95T267 48T216 6T155 -11Q125 -11 98 4T59 56Q57 64 57 83V101L92 241Q127 382 128 383Q128 385 77 385H26Z" />
    <path
       id="MJX-15-TEX-N-28"
       d="M94 250Q94 319 104 381T127 488T164 576T202 643T244 695T277 729T302 750H315H319Q333 750 333 741Q333 738 316 720T275 667T226 581T184 443T167 250T184 58T225 -81T274 -167T316 -220T333 -241Q333 -250 318 -250H315H302L274 -226Q180 -141 137 -14T94 250Z" />
    <path
       id="MJX-15-TEX-V-2032"
       d="M79 43Q73 43 52 49T30 61Q30 68 85 293T146 528Q161 560 198 560Q218 560 240 545T262 501Q262 496 260 486Q259 479 173 263T84 45T79 43Z" />
    <path
       id="MJX-15-TEX-N-29"
       d="M60 749L64 750Q69 750 74 750H86L114 726Q208 641 251 514T294 250Q294 182 284 119T261 12T224 -76T186 -143T145 -194T113 -227T90 -246Q87 -249 86 -250H74Q66 -250 63 -250T58 -247T55 -238Q56 -237 66 -225Q221 -64 221 250T66 725Q56 737 55 738Q55 746 60 749Z" />
  </defs>
  <g
     transform="matrix(2,0,0,2,97.5,0)"
     id="g70">
    <g
       id="background-3c10f4b9">
      <rect
         fill="#ffffff"
         stroke="none"
         x="0"
         y="0"
         width="400"
         height="400"
         class="dcg-svg-background"
         id="rect1" />
    </g>
    <g
       id="background-images-3c10f4b9" />
    <g
       id="graphpaper-3c10f4b9">
      <g
         id="grid-3c10f4b9">
        <g
           id="g40">
          <path
             fill="none"
             stroke="#000000"
             class="dcg-svg-minor-gridline"
             paint-order="fill stroke markers"
             d="M 20.5,0 V 400"
             stroke-opacity="0.2"
             stroke-miterlimit="10"
             stroke-dasharray="none"
             id="path1" />
          <path
             fill="none"
             stroke="#000000"
             class="dcg-svg-minor-gridline"
             paint-order="fill stroke markers"
             d="M 40.5,0 V 400"
             stroke-opacity="0.2"
             stroke-miterlimit="10"
             stroke-dasharray="none"
             id="path2" />
          <path
             fill="none"
             stroke="#000000"
             class="dcg-svg-minor-gridline"
             paint-order="fill stroke markers"
             d="M 60.5,0 V 400"
             stroke-opacity="0.2"
             stroke-miterlimit="10"
             stroke-dasharray="none"
             id="path3" />
          <path
             fill="none"
             stroke="#000000"
             class="dcg-svg-minor-gridline"
             paint-order="fill stroke markers"
             d="M 80.5,0 V 400"
             stroke-opacity="0.2"
             stroke-miterlimit="10"
             stroke-dasharray="none"
             id="path4" />
          <path
             fill="none"
             stroke="#000000"
             class="dcg-svg-minor-gridline"
             paint-order="fill stroke markers"
             d="M 100.5,0 V 400"
             stroke-opacity="0.2"
             stroke-miterlimit="10"
             stroke-dasharray="none"
             id="path5" />
          <path
             fill="none"
             stroke="#000000"
             class="dcg-svg-minor-gridline"
             paint-order="fill stroke markers"
             d="M 120.5,0 V 400"
             stroke-opacity="0.2"
             stroke-miterlimit="10"
             stroke-dasharray="none"
             id="path6" />
          <path
             fill="none"
             stroke="#000000"
             class="dcg-svg-minor-gridline"
             paint-order="fill stroke markers"
             d="M 140.5,0 V 400"
             stroke-opacity="0.2"
             stroke-miterlimit="10"
             stroke-dasharray="none"
             id="path7" />
          <path
             fill="none"
             stroke="#000000"
             class="dcg-svg-minor-gridline"
             paint-order="fill stroke markers"
             d="M 160.5,0 V 400"
             stroke-opacity="0.2"
             stroke-miterlimit="10"
             stroke-dasharray="none"
             id="path8" />
          <path
             fill="none"
             stroke="#000000"
             class="dcg-svg-minor-gridline"
             paint-order="fill stroke markers"
             d="M 180.5,0 V 400"
             stroke-opacity="0.2"
             stroke-miterlimit="10"
             stroke-dasharray="none"
             id="path9" />
          <path
             fill="none"
             stroke="#000000"
             class="dcg-svg-minor-gridline"
             paint-order="fill stroke markers"
             d="M 220.5,0 V 400"
             stroke-opacity="0.2"
             stroke-miterlimit="10"
             stroke-dasharray="none"
             id="path10" />
          <path
             fill="none"
             stroke="#000000"
             class="dcg-svg-minor-gridline"
             paint-order="fill stroke markers"
             d="M 240.5,0 V 400"
             stroke-opacity="0.2"
             stroke-miterlimit="10"
             stroke-dasharray="none"
             id="path11" />
          <path
             fill="none"
             stroke="#000000"
             class="dcg-svg-minor-gridline"
             paint-order="fill stroke markers"
             d="M 260.5,0 V 400"
             stroke-opacity="0.2"
             stroke-miterlimit="10"
             stroke-dasharray="none"
             id="path12" />
          <path
             fill="none"
             stroke="#000000"
             class="dcg-svg-minor-gridline"
             paint-order="fill stroke markers"
             d="M 280.5,0 V 400"
             stroke-opacity="0.2"
             stroke-miterlimit="10"
             stroke-dasharray="none"
             id="path13" />
          <path
             fill="none"
             stroke="#000000"
             class="dcg-svg-minor-gridline"
             paint-order="fill stroke markers"
             d="M 300.5,0 V 400"
             stroke-opacity="0.2"
             stroke-miterlimit="10"
             stroke-dasharray="none"
             id="path14" />
          <path
             fill="none"
             stroke="#000000"
             class="dcg-svg-minor-gridline"
             paint-order="fill stroke markers"
             d="M 320.5,0 V 400"
             stroke-opacity="0.2"
             stroke-miterlimit="10"
             stroke-dasharray="none"
             id="path15" />
          <path
             fill="none"
             stroke="#000000"
             class="dcg-svg-minor-gridline"
             paint-order="fill stroke markers"
             d="M 340.5,0 V 400"
             stroke-opacity="0.2"
             stroke-miterlimit="10"
             stroke-dasharray="none"
             id="path16" />
          <path
             fill="none"
             stroke="#000000"
             class="dcg-svg-minor-gridline"
             paint-order="fill stroke markers"
             d="M 360.5,0 V 400"
             stroke-opacity="0.2"
             stroke-miterlimit="10"
             stroke-dasharray="none"
             id="path17" />
          <path
             fill="none"
             stroke="#000000"
             class="dcg-svg-minor-gridline"
             paint-order="fill stroke markers"
             d="M 380.5,0 V 400"
             stroke-opacity="0.2"
             stroke-miterlimit="10"
             stroke-dasharray="none"
             id="path18" />
          <path
             fill="none"
             stroke="#000000"
             class="dcg-svg-minor-gridline"
             paint-order="fill stroke markers"
             d="M 0,380.5 H 400"
             stroke-opacity="0.2"
             stroke-miterlimit="10"
             stroke-dasharray="none"
             id="path19" />
          <path
             fill="none"
             stroke="#000000"
             class="dcg-svg-minor-gridline"
             paint-order="fill stroke markers"
             d="M 0,360.5 H 400"
             stroke-opacity="0.2"
             stroke-miterlimit="10"
             stroke-dasharray="none"
             id="path20" />
          <path
             fill="none"
             stroke="#000000"
             class="dcg-svg-minor-gridline"
             paint-order="fill stroke markers"
             d="M 0,340.5 H 400"
             stroke-opacity="0.2"
             stroke-miterlimit="10"
             stroke-dasharray="none"
             id="path21" />
          <path
             fill="none"
             stroke="#000000"
             class="dcg-svg-minor-gridline"
             paint-order="fill stroke markers"
             d="M 0,320.5 H 400"
             stroke-opacity="0.2"
             stroke-miterlimit="10"
             stroke-dasharray="none"
             id="path22" />
          <path
             fill="none"
             stroke="#000000"
             class="dcg-svg-minor-gridline"
             paint-order="fill stroke markers"
             d="M 0,300.5 H 400"
             stroke-opacity="0.2"
             stroke-miterlimit="10"
             stroke-dasharray="none"
             id="path23" />
          <path
             fill="none"
             stroke="#000000"
             class="dcg-svg-minor-gridline"
             paint-order="fill stroke markers"
             d="M 0,280.5 H 400"
             stroke-opacity="0.2"
             stroke-miterlimit="10"
             stroke-dasharray="none"
             id="path24" />
          <path
             fill="none"
             stroke="#000000"
             class="dcg-svg-minor-gridline"
             paint-order="fill stroke markers"
             d="M 0,260.5 H 400"
             stroke-opacity="0.2"
             stroke-miterlimit="10"
             stroke-dasharray="none"
             id="path25" />
          <path
             fill="none"
             stroke="#000000"
             class="dcg-svg-minor-gridline"
             paint-order="fill stroke markers"
             d="M 0,240.5 H 400"
             stroke-opacity="0.2"
             stroke-miterlimit="10"
             stroke-dasharray="none"
             id="path26" />
          <path
             fill="none"
             stroke="#000000"
             class="dcg-svg-minor-gridline"
             paint-order="fill stroke markers"
             d="M 0,220.5 H 400"
             stroke-opacity="0.2"
             stroke-miterlimit="10"
             stroke-dasharray="none"
             id="path27" />
          <path
             fill="none"
             stroke="#000000"
             class="dcg-svg-minor-gridline"
             paint-order="fill stroke markers"
             d="M 0,180.5 H 400"
             stroke-opacity="0.2"
             stroke-miterlimit="10"
             stroke-dasharray="none"
             id="path28" />
          <path
             fill="none"
             stroke="#000000"
             class="dcg-svg-minor-gridline"
             paint-order="fill stroke markers"
             d="M 0,160.5 H 400"
             stroke-opacity="0.2"
             stroke-miterlimit="10"
             stroke-dasharray="none"
             id="path29" />
          <path
             fill="none"
             stroke="#000000"
             class="dcg-svg-minor-gridline"
             paint-order="fill stroke markers"
             d="M 0,140.5 H 400"
             stroke-opacity="0.2"
             stroke-miterlimit="10"
             stroke-dasharray="none"
             id="path30" />
          <path
             fill="none"
             stroke="#000000"
             class="dcg-svg-minor-gridline"
             paint-order="fill stroke markers"
             d="M 0,120.5 H 400"
             stroke-opacity="0.2"
             stroke-miterlimit="10"
             stroke-dasharray="none"
             id="path31" />
          <path
             fill="none"
             stroke="#000000"
             class="dcg-svg-minor-gridline"
             paint-order="fill stroke markers"
             d="M 0,100.5 H 400"
             stroke-opacity="0.2"
             stroke-miterlimit="10"
             stroke-dasharray="none"
             id="path32" />
          <path
             fill="none"
             stroke="#000000"
             class="dcg-svg-minor-gridline"
             paint-order="fill stroke markers"
             d="M 0,79.5 H 400"
             stroke-opacity="0.2"
             stroke-miterlimit="10"
             stroke-dasharray="none"
             id="path33" />
          <path
             fill="none"
             stroke="#000000"
             class="dcg-svg-minor-gridline"
             paint-order="fill stroke markers"
             d="M 0,60.5 H 400"
             stroke-opacity="0.2"
             stroke-miterlimit="10"
             stroke-dasharray="none"
             id="path34" />
          <path
             fill="none"
             stroke="#000000"
             class="dcg-svg-minor-gridline"
             paint-order="fill stroke markers"
             d="M 0,40.5 H 400"
             stroke-opacity="0.2"
             stroke-miterlimit="10"
             stroke-dasharray="none"
             id="path35" />
          <path
             fill="none"
             stroke="#000000"
             class="dcg-svg-minor-gridline"
             paint-order="fill stroke markers"
             d="M 0,20.5 H 400"
             stroke-opacity="0.2"
             stroke-miterlimit="10"
             stroke-dasharray="none"
             id="path36" />
          <path
             fill="none"
             stroke="#000000"
             class="dcg-svg-major-gridline"
             paint-order="fill stroke markers"
             d="M 100.5,0 V 400"
             stroke-opacity="0.25"
             stroke-miterlimit="10"
             stroke-dasharray="none"
             id="path37" />
          <path
             fill="none"
             stroke="#000000"
             class="dcg-svg-major-gridline"
             paint-order="fill stroke markers"
             d="M 300.5,0 V 400"
             stroke-opacity="0.25"
             stroke-miterlimit="10"
             stroke-dasharray="none"
             id="path38" />
          <path
             fill="none"
             stroke="#000000"
             class="dcg-svg-major-gridline"
             paint-order="fill stroke markers"
             d="M 0,300.5 H 400"
             stroke-opacity="0.25"
             stroke-miterlimit="10"
             stroke-dasharray="none"
             id="path39" />
          <path
             fill="none"
             stroke="#000000"
             class="dcg-svg-major-gridline"
             paint-order="fill stroke markers"
             d="M 0,100.5 H 400"
             stroke-opacity="0.25"
             stroke-miterlimit="10"
             stroke-dasharray="none"
             id="path40" />
        </g>
      </g>
      <g
         id="axis-3c10f4b9">
        <g
           id="yaxis-3c10f4b9">
          <title
             id="title40">Y axis</title>
          <g
             id="g43">
            <path
               fill="none"
               stroke="#000000"
               class="dcg-svg-axis-line"
               paint-order="fill stroke markers"
               d="M 200,3 V 400"
               stroke-opacity="0.9"
               stroke-miterlimit="10"
               stroke-width="1.5"
               stroke-dasharray="none"
               id="path41" />
            <g
               class="dcg-svg-axis-line"
               id="g42">
              <path
                 fill="#000000"
                 stroke="#000000"
                 class="dcg-svg-axis-line"
                 paint-order="stroke fill markers"
                 d="m 200,1.5 3.10583,11.59111 h -6.21166 L 200,1.5 l 3.10583,11.59111"
                 stroke-opacity="0.9"
                 stroke-linejoin="round"
                 stroke-miterlimit="10"
                 stroke-width="1.5"
                 stroke-dasharray="none"
                 fill-opacity="0.9"
                 id="path42" />
            </g>
          </g>
        </g>
        <g
           id="xaxis-3c10f4b9">
          <title
             id="title43">X axis</title>
          <g
             id="g45">
            <path
               fill="none"
               stroke="#000000"
               class="dcg-svg-axis-line"
               paint-order="fill stroke markers"
               d="M 0,200 H 397"
               stroke-opacity="0.9"
               stroke-miterlimit="10"
               stroke-width="1.5"
               stroke-dasharray="none"
               id="path43" />
            <g
               class="dcg-svg-axis-line"
               id="g44">
              <path
                 fill="#000000"
                 stroke="#000000"
                 class="dcg-svg-axis-line"
                 paint-order="stroke fill markers"
                 d="m 398.5,200 -11.59111,3.10583 v -6.21166 L 398.5,200 l -11.59111,3.10583"
                 stroke-opacity="0.9"
                 stroke-linejoin="round"
                 stroke-miterlimit="10"
                 stroke-width="1.5"
                 stroke-dasharray="none"
                 fill-opacity="0.9"
                 id="path44" />
            </g>
          </g>
        </g>
        <g
           id="g63">
          <g
             class="dcg-svg-axis-value"
             id="g46">
            <text
               fill="none"
               stroke="#ffffff"
               font-family="Arial"
               font-size="14px"
               font-style="normal"
               font-weight="normal"
               text-decoration="normal"
               x="191.32568"
               y="215.808"
               text-anchor="middle"
               stroke-miterlimit="2"
               stroke-width="3"
               stroke-dasharray="none"
               id="text45">0</text>
            <text
               fill="#000000"
               stroke="none"
               font-family="Arial"
               font-size="14px"
               font-style="normal"
               font-weight="normal"
               text-decoration="normal"
               x="191.32568"
               y="215.808"
               text-anchor="middle"
               id="text46">0</text>
          </g>
          <g
             class="dcg-svg-axis-value dcg-svg-offcenter-axis-value"
             id="g48">
            <text
               fill="none"
               stroke="#ffffff"
               font-family="Arial"
               font-size="14px"
               font-style="normal"
               font-weight="normal"
               text-decoration="normal"
               x="9.7299805"
               y="215.808"
               text-anchor="middle"
               stroke-miterlimit="2"
               stroke-width="3"
               stroke-dasharray="none"
               id="text47">-π</text>
            <text
               fill="#000000"
               stroke="none"
               font-family="Arial"
               font-size="14px"
               font-style="normal"
               font-weight="normal"
               text-decoration="normal"
               x="9.7299805"
               y="215.808"
               text-anchor="middle"
               id="text48">-π</text>
          </g>
          <g
             class="dcg-svg-axis-value"
             id="g50">
            <text
               fill="none"
               stroke="#ffffff"
               font-family="Arial"
               font-size="14px"
               font-style="normal"
               font-weight="normal"
               text-decoration="normal"
               x="97.552734"
               y="215.808"
               text-anchor="middle"
               stroke-miterlimit="2"
               stroke-width="3"
               stroke-dasharray="none"
               id="text49">-π/2</text>
            <text
               fill="#000000"
               stroke="none"
               font-family="Arial"
               font-size="14px"
               font-style="normal"
               font-weight="normal"
               text-decoration="normal"
               x="97.552734"
               y="215.808"
               text-anchor="middle"
               id="text50">-π/2</text>
          </g>
          <g
             class="dcg-svg-axis-value"
             id="g52">
            <text
               fill="none"
               stroke="#ffffff"
               font-family="Arial"
               font-size="14px"
               font-style="normal"
               font-weight="normal"
               text-decoration="normal"
               x="300"
               y="215.808"
               text-anchor="middle"
               stroke-miterlimit="2"
               stroke-width="3"
               stroke-dasharray="none"
               id="text51">π/2</text>
            <text
               fill="#000000"
               stroke="none"
               font-family="Arial"
               font-size="14px"
               font-style="normal"
               font-weight="normal"
               text-decoration="normal"
               x="300"
               y="215.808"
               text-anchor="middle"
               id="text52">π/2</text>
          </g>
          <g
             class="dcg-svg-axis-value dcg-svg-offcenter-axis-value"
             id="g54">
            <text
               fill="none"
               stroke="#ffffff"
               font-family="Arial"
               font-size="14px"
               font-style="normal"
               font-weight="normal"
               text-decoration="normal"
               x="392.71729"
               y="215.808"
               text-anchor="middle"
               stroke-miterlimit="2"
               stroke-width="3"
               stroke-dasharray="none"
               id="text53">π</text>
            <text
               fill="#000000"
               stroke="none"
               font-family="Arial"
               font-size="14px"
               font-style="normal"
               font-weight="normal"
               text-decoration="normal"
               x="392.71729"
               y="215.808"
               text-anchor="middle"
               id="text54">π</text>
          </g>
          <g
             class="dcg-svg-axis-value dcg-svg-offcenter-axis-value"
             id="g56">
            <text
               fill="none"
               stroke="#ffffff"
               font-family="Arial"
               font-size="14px"
               font-style="normal"
               font-weight="normal"
               text-decoration="normal"
               x="188.87842"
               y="393.80801"
               text-anchor="middle"
               stroke-miterlimit="2"
               stroke-width="3"
               stroke-dasharray="none"
               id="text55">-2</text>
            <text
               fill="#000000"
               stroke="none"
               font-family="Arial"
               font-size="14px"
               font-style="normal"
               font-weight="normal"
               text-decoration="normal"
               x="188.87842"
               y="393.80801"
               text-anchor="middle"
               id="text56">-2</text>
          </g>
          <g
             class="dcg-svg-axis-value"
             id="g58">
            <text
               fill="none"
               stroke="#ffffff"
               font-family="Arial"
               font-size="14px"
               font-style="normal"
               font-weight="normal"
               text-decoration="normal"
               x="188.87842"
               y="303.80801"
               text-anchor="middle"
               stroke-miterlimit="2"
               stroke-width="3"
               stroke-dasharray="none"
               id="text57">-1</text>
            <text
               fill="#000000"
               stroke="none"
               font-family="Arial"
               font-size="14px"
               font-style="normal"
               font-weight="normal"
               text-decoration="normal"
               x="188.87842"
               y="303.80801"
               text-anchor="middle"
               id="text58">-1</text>
          </g>
          <g
             class="dcg-svg-axis-value"
             id="g60">
            <text
               fill="none"
               stroke="#ffffff"
               font-family="Arial"
               font-size="14px"
               font-style="normal"
               font-weight="normal"
               text-decoration="normal"
               x="191.32568"
               y="103.808"
               text-anchor="middle"
               stroke-miterlimit="2"
               stroke-width="3"
               stroke-dasharray="none"
               id="text59">1</text>
            <text
               fill="#000000"
               stroke="none"
               font-family="Arial"
               font-size="14px"
               font-style="normal"
               font-weight="normal"
               text-decoration="normal"
               x="191.32568"
               y="103.808"
               text-anchor="middle"
               id="text60">1</text>
          </g>
          <g
             class="dcg-svg-axis-value dcg-svg-offcenter-axis-value"
             id="g62">
            <text
               fill="none"
               stroke="#ffffff"
               font-family="Arial"
               font-size="14px"
               font-style="normal"
               font-weight="normal"
               text-decoration="normal"
               x="191.32568"
               y="13.808"
               text-anchor="middle"
               stroke-miterlimit="2"
               stroke-width="3"
               stroke-dasharray="none"
               id="text61">2</text>
            <text
               fill="#000000"
               stroke="none"
               font-family="Arial"
               font-size="14px"
               font-style="normal"
               font-weight="normal"
               text-decoration="normal"
               x="191.32568"
               y="13.808"
               text-anchor="middle"
               id="text62">2</text>
          </g>
        </g>
      </g>
    </g>
    <g
       id="expressions-3c10f4b9">
      <g
         id="sketch-3c10f4b9">
        <title
           id="title63">Expression 1</title>
        <path
           fill="#000000"
           stroke="none"
           paint-order="stroke fill markers"
           d=""
           fill-opacity="0.4"
           id="path63" />
        <g
           id="g64">
          <path
             fill="none"
             stroke="#000000"
             class="dcg-svg-curve"
             paint-order="fill stroke markers"
             d="m 69.174637,405.5 5.907322,-9.2792 m 3.759205,-5.90494 5.907322,-9.2792 m 3.759205,-5.90495 5.907322,-9.2792 m 3.759204,-5.90494 5.907323,-9.2792 m 3.7592,-5.90495 5.90733,-9.2792 m 3.7592,-5.90494 5.90732,-9.2792 m 3.75921,-5.90495 5.90732,-9.2792 m 3.75921,-5.90494 5.90732,-9.2792 m 3.7592,-5.90495 5.90732,-9.2792 m 3.75921,-5.90494 5.90732,-9.2792 m 3.75921,-5.90495 5.90732,-9.2792 m 3.7592,-5.90494 5.90732,-9.2792 m 3.75921,-5.90495 5.90732,-9.2792 m 3.75921,-5.90494 5.90732,-9.2792 m 3.7592,-5.90495 5.90733,-9.2792 m 3.7592,-5.90494 5.90732,-9.2792 m 3.75921,-5.90495 5.90732,-9.2792 m 3.7592,-5.90494 5.90733,-9.2792 m 3.7592,-5.90495 5.90732,-9.2792 m 3.75921,-5.90494 5.90732,-9.2792 m 3.7592,-5.90495 5.90733,-9.279199 m 3.7592,-5.904945 5.90732,-9.2792 m 3.75921,-5.904945 5.90732,-9.279199 m 3.75921,-5.904946 5.90732,-9.279199 m 3.7592,-5.904946 5.90732,-9.279199 m 3.75921,-5.904946 5.90732,-9.279199 m 3.75921,-5.904946 5.90732,-9.2791993 m 3.7592,-5.9049452 L 330.82536,-5.5"
             stroke-linecap="round"
             stroke-linejoin="round"
             stroke-miterlimit="10"
             stroke-width="2.5"
             stroke-dasharray="none"
             id="path64" />
        </g>
      </g>
      <g
         id="g67">
        <title
           id="title64">Expression 2</title>
        <path
           fill="#388c46"
           stroke="none"
           paint-order="stroke fill markers"
           d=""
           fill-opacity="0.4"
           id="path65" />
        <g
           id="g66">
          <path
             fill="none"
             stroke="#388c46"
             class="dcg-svg-curve"
             paint-order="fill stroke markers"
             d="m 0,200 v 0 l 15.917969,24.74416 8.59375,12.81446 7.226562,10.25609 6.445313,8.63191 5.859375,7.34777 5.371093,6.26249 4.980469,5.36262 4.6875,4.62627 4.394531,3.94361 4.199219,3.3948 4.003907,2.88315 3.808593,2.41142 3.710938,2.03069 3.515625,1.62714 3.417969,1.30039 3.417968,1.01902 3.320313,0.71768 3.320312,0.44743 3.222656,0.17466 3.222658,-0.0815 3.22266,-0.3375 3.32031,-0.61454 3.32031,-0.88367 3.41797,-1.18825 3.41797,-1.46747 3.51562,-1.79624 3.61328,-2.14354 3.8086,-2.57819 3.90625,-2.97466 4.10156,-3.47125 4.29687,-4.00327 4.58985,-4.67038 4.88281,-5.38874 5.27344,-6.27054 5.76172,-7.33659 6.34765,-8.59943 7.03125,-10.0574 8.10547,-12.13228 10.74219,-16.64384 22.26562,-34.6186 8.20313,-12.13706 7.03125,-9.89062 6.34766,-8.41635 5.76171,-7.14527 5.3711,-6.18389 4.98047,-5.28351 4.58984,-4.45644 4.39453,-3.87381 4.10156,-3.25213 3.90625,-2.75835 3.8086,-2.36093 3.61328,-1.93232 3.51562,-1.58662 3.41797,-1.26041 3.41797,-0.97856 3.32031,-0.67805 3.32032,-0.40756 3.22265,-0.13586 3.22266,0.12033 3.22266,0.37623 3.32031,0.65424 3.32031,0.92307 3.41797,1.22836 3.41797,1.50704 3.51562,1.83623 3.71094,2.24691 3.80859,2.62776 4.00391,3.10368 4.19922,3.61755 4.39453,4.16631 4.6875,4.85091 4.98047,5.58536 5.37109,6.48279 5.85938,7.56271 6.44531,8.83568 7.22656,10.44134 8.4961,12.8222 12.01172,18.71041 L 400,200"
             stroke-linecap="round"
             stroke-linejoin="round"
             stroke-miterlimit="10"
             stroke-width="2.5"
             stroke-dasharray="none"
             id="path66" />
        </g>
      </g>
      <g
         id="g69">
        <title
           id="title67">Expression 3</title>
        <path
           fill="#6042a6"
           stroke="none"
           paint-order="stroke fill markers"
           d=""
           fill-opacity="0.4"
           id="path67" />
        <g
           id="g68">
          <path
             fill="none"
             stroke="#6042a6"
             class="dcg-svg-curve"
             paint-order="fill stroke markers"
             d="m 0,400 v 0 l 3.2226563,-0.1281 3.2226562,-0.38397 3.3203125,-0.66217 3.320313,-0.93094 3.417968,-1.23638 3.417969,-1.51494 3.515625,-1.84422 3.710938,-2.25515 3.808593,-2.636 4.003906,-3.11207 4.199219,-3.626 4.394531,-4.17475 4.6875,-4.85939 4.980469,-5.59376 5.371094,-6.49106 5.859375,-7.57074 6.542969,-8.98093 7.226562,-10.45492 8.496094,-12.83337 12.207031,-19.02384 17.089839,-26.58006 8.4961,-12.66586 7.22656,-10.25609 6.44531,-8.63191 5.85938,-7.34777 5.37109,-6.26249 4.98047,-5.36262 4.6875,-4.62627 4.39453,-3.94361 4.19922,-3.3948 4.00391,-2.88315 3.80859,-2.41142 3.71094,-2.03069 3.51562,-1.62714 3.41797,-1.30039 3.41797,-1.01902 3.32031,-0.71768 3.32032,-0.44743 3.22265,-0.17466 3.22266,0.0815 3.22265,0.3375 3.32032,0.61454 3.32031,0.88367 3.41797,1.18825 3.41797,1.46747 3.51562,1.79624 3.61328,2.14354 3.8086,2.57819 3.90625,2.97466 4.10156,3.47125 4.29687,4.00327 4.58985,4.67038 4.88281,5.38874 5.27344,6.27054 5.76172,7.33659 6.34765,8.59943 7.03125,10.0574 8.10547,12.13228 10.74219,16.64384 22.26562,34.6186 8.20313,12.13706 7.03125,9.89062 6.34766,8.41635 5.76171,7.14527 5.3711,6.18389 4.98047,5.28351 4.58984,4.45644 4.39453,3.87381 4.10156,3.25213 3.90625,2.75835 3.8086,2.36093 3.61328,1.93232 3.51562,1.58662 3.41797,1.26041 3.41797,0.97856 3.32031,0.67805 3.32032,0.40756 3.22265,0.13586 L 400,400"
             stroke-linecap="round"
             stroke-linejoin="round"
             stroke-miterlimit="10"
             stroke-width="2.5"
             stroke-dasharray="none"
             id="path68" />
        </g>
      </g>
    </g>
    <g
       id="labels-3c10f4b9" />
  </g>
  <g
     data-mml-node="mtr"
     transform="matrix(0.05402895,0,0,-0.05402895,81.011375,96.738576)"
     id="g6"
     style="fill:#000000;stroke:#000000;stroke-width:0">
    <g
       data-mml-node="mtd"
       transform="translate(5145.4)"
       id="g5">
      <g
         data-mml-node="mi"
         id="g1">
        <use
           data-c="211C"
           xlink:href="#MJX-15-TEX-N-211C"
           id="use1" />
      </g>
      <g
         data-mml-node="mo"
         transform="translate(828)"
         id="g2">
        <use
           data-c="2C"
           xlink:href="#MJX-15-TEX-N-2C"
           id="use2" />
      </g>
      <g
         data-mml-node="mtext"
         transform="translate(1272.7)"
         id="g3">
        <use
           data-c="A0"
           xlink:href="#MJX-15-TEX-N-A0"
           id="use3" />
      </g>
      <g
         data-mml-node="mi"
         transform="translate(1522.7)"
         id="g4">
        <use
           data-c="2111"
           xlink:href="#MJX-15-TEX-N-2111"
           id="use4" />
      </g>
    </g>
  </g>
  <g
     data-mml-node="mtr"
     transform="matrix(0.05402895,0,0,-0.05402895,468.97507,378.68961)"
     id="g12"
     style="fill:#000000;stroke:#000000;stroke-width:0">
    <g
       data-mml-node="mtd"
       transform="translate(5757.8)"
       id="g11">
      <g
         data-mml-node="mi"
         id="g7">
        <use
           data-c="1D453"
           xlink:href="#MJX-15-TEX-I-1D453"
           id="use6" />
      </g>
      <g
         data-mml-node="msub"
         transform="translate(550)"
         id="g10">
        <g
           data-mml-node="mi"
           id="g8">
          <use
             data-c="210E"
             xlink:href="#MJX-15-TEX-I-210E"
             id="use7" />
        </g>
        <g
           data-mml-node="mi"
           transform="matrix(0.707,0,0,0.707,609,-150)"
           id="g9">
          <use
             data-c="1D461"
             xlink:href="#MJX-15-TEX-I-1D461"
             id="use8" />
        </g>
      </g>
    </g>
  </g>
  <g
     data-mml-node="mtr"
     transform="matrix(0.05402895,0,0,-0.05402895,307.15228,917.03843)"
     id="g34"
     style="fill:#000000;stroke:#000000;stroke-width:0">
    <g
       data-mml-node="mtd"
       id="g33">
      <g
         data-mml-node="mi"
         id="g13">
        <use
           data-c="211C"
           xlink:href="#MJX-15-TEX-N-211C"
           id="use12"
           style="fill:#388c46;fill-opacity:1" />
      </g>
      <g
         data-mml-node="mo"
         transform="translate(828)"
         id="g14">
        <use
           data-c="28"
           xlink:href="#MJX-15-TEX-N-28"
           id="use13"
           style="fill:#388c46;fill-opacity:1" />
      </g>
      <g
         data-mml-node="msup"
         transform="translate(1217)"
         id="g17">
        <g
           data-mml-node="mi"
           id="g15">
          <use
             data-c="1D453"
             xlink:href="#MJX-15-TEX-I-1D453"
             id="use14"
             style="fill:#388c46;fill-opacity:1" />
        </g>
        <g
           data-mml-node="mi"
           transform="matrix(0.707,0,0,0.707,636,413)"
           id="g16">
          <use
             data-c="2032"
             xlink:href="#MJX-15-TEX-V-2032"
             id="use15"
             style="fill:#388c46;fill-opacity:1" />
        </g>
      </g>
      <g
         data-mml-node="mo"
         transform="translate(2097.5)"
         id="g18">
        <use
           data-c="29"
           xlink:href="#MJX-15-TEX-N-29"
           id="use17"
           style="fill:#388c46;fill-opacity:1" />
      </g>
      <g
         data-mml-node="msub"
         transform="translate(2486.5)"
         id="g21">
        <g
           data-mml-node="mi"
           id="g19">
          <use
             data-c="210E"
             xlink:href="#MJX-15-TEX-I-210E"
             id="use18"
             style="fill:#388c46;fill-opacity:1" />
        </g>
        <g
           data-mml-node="mi"
           transform="matrix(0.707,0,0,0.707,609,-150)"
           id="g20">
          <use
             data-c="1D461"
             xlink:href="#MJX-15-TEX-I-1D461"
             id="use19"
             style="fill:#388c46;fill-opacity:1" />
        </g>
      </g>
      <g
         data-mml-node="mo"
         transform="translate(3400.7)"
         id="g22">
        <use
           data-c="2C"
           xlink:href="#MJX-15-TEX-N-2C"
           id="use21" />
      </g>
      <g
         data-mml-node="mtext"
         transform="translate(3845.4)"
         id="g23">
        <use
           data-c="A0"
           xlink:href="#MJX-15-TEX-N-A0"
           id="use22" />
      </g>
      <g
         data-mml-node="mi"
         transform="translate(4095.4)"
         id="g24">
        <use
           data-c="2111"
           xlink:href="#MJX-15-TEX-N-2111"
           id="use23"
           style="fill:#6042a6;fill-opacity:1" />
      </g>
      <g
         data-mml-node="mo"
         transform="translate(4649.4)"
         id="g25">
        <use
           data-c="28"
           xlink:href="#MJX-15-TEX-N-28"
           id="use24"
           style="fill:#6042a6;fill-opacity:1" />
      </g>
      <g
         data-mml-node="msup"
         transform="translate(5038.4)"
         id="g28">
        <g
           data-mml-node="mi"
           id="g26">
          <use
             data-c="1D453"
             xlink:href="#MJX-15-TEX-I-1D453"
             id="use25"
             style="fill:#6042a6;fill-opacity:1" />
        </g>
        <g
           data-mml-node="mi"
           transform="matrix(0.707,0,0,0.707,636,413)"
           id="g27">
          <use
             data-c="2032"
             xlink:href="#MJX-15-TEX-V-2032"
             id="use26"
             style="fill:#6042a6;fill-opacity:1" />
        </g>
      </g>
      <g
         data-mml-node="mo"
         transform="translate(5918.8)"
         id="g29">
        <use
           data-c="29"
           xlink:href="#MJX-15-TEX-N-29"
           id="use28"
           style="fill:#6042a6;fill-opacity:1" />
      </g>
      <g
         data-mml-node="msub"
         transform="translate(6307.8)"
         id="g32">
        <g
           data-mml-node="mi"
           id="g30">
          <use
             data-c="210E"
             xlink:href="#MJX-15-TEX-I-210E"
             id="use29"
             style="fill:#6042a6;fill-opacity:1" />
        </g>
        <g
           data-mml-node="mi"
           transform="matrix(0.707,0,0,0.707,609,-150)"
           id="g31">
          <use
             data-c="1D461"
             xlink:href="#MJX-15-TEX-I-1D461"
             id="use30"
             style="fill:#6042a6;fill-opacity:1" />
        </g>
      </g>
    </g>
  </g>
</svg>
